<?xml version="1.0" standalone="no"?>
<!DOCTYPE svg PUBLIC "-//W3C//DTD SVG 20010904//EN"
 "http://www.w3.org/TR/2001/REC-SVG-20010904/DTD/svg10.dtd">
<svg version="1.0" xmlns="http://www.w3.org/2000/svg"
 width="2048.000000pt" height="2048.000000pt" viewBox="0 0 2048.000000 2048.000000"
 preserveAspectRatio="xMidYMid meet">
<metadata>
Created by potrace 1.16, written by Peter Selinger 2001-2019
</metadata>
<g transform="translate(0.000000,2048.000000) scale(0.100000,-0.100000)"
fill="#000000" stroke="none">
<path d="M0 10240 l0 -10240 10240 0 10240 0 0 10240 0 10240 -10240 0 -10240
0 0 -10240z m18020 2018 c130 -36 180 -66 284 -171 72 -73 96 -106 127 -171
45 -98 69 -204 77 -351 4 -60 4 -724 1 -1475 -5 -1231 -7 -1372 -22 -1433 -70
-282 -232 -456 -469 -505 -78 -16 -573 -17 -7853 -17 -7209 0 -7774 1 -7820
17 -84 27 -127 48 -196 94 -124 82 -204 196 -265 374 -18 53 -19 114 -19 1560
0 1431 1 1509 19 1585 29 126 91 240 176 325 124 125 210 170 360 190 30 4
3531 7 7780 6 l7725 -1 95 -27z"/>
<path d="M2590 11989 c-68 -12 -186 -68 -232 -112 -78 -73 -153 -196 -185
-304 -16 -53 -18 -164 -21 -1338 -4 -1365 -4 -1341 46 -1440 75 -149 193 -250
339 -291 53 -15 593 -16 6352 -15 3588 1 6314 6 6340 11 148 29 271 105 389
243 90 105 128 181 182 364 11 40 25 75 30 78 5 3 27 -6 50 -20 57 -36 50 -23
-12 23 -72 53 -203 189 -256 265 -105 151 -205 363 -237 507 -26 116 -32 477
-10 595 33 178 138 405 261 566 57 75 68 86 163 172 l54 47 -18 48 c-22 59
-108 223 -145 277 -33 48 -119 138 -175 184 -55 45 -165 97 -260 123 l-80 22
-6260 2 c-3915 2 -6281 -1 -6315 -7z m12405 -168 c162 -9 231 -23 312 -63 49
-24 85 -58 61 -58 -14 0 -74 19 -178 58 -55 20 -493 22 -2360 9 -1101 -8
-5636 -10 -5895 -2 -60 1 -1005 6 -2100 10 l-1990 7 -85 -21 c-66 -17 -103
-34 -167 -77 -86 -58 -182 -150 -221 -212 -18 -29 -22 -31 -17 -12 20 80 46
130 95 189 47 55 71 74 147 112 50 26 106 50 125 54 18 5 580 11 1248 14 1859
9 10842 3 11025 -8z m-8280 -790 c37 -21 73 -73 81 -117 20 -108 -56 -194
-171 -194 -106 0 -176 88 -160 198 5 38 15 55 50 89 24 23 54 44 67 46 37 8
100 -2 133 -22z m2212 3 c134 -66 121 -258 -21 -305 -88 -29 -162 0 -203 81
-27 52 -29 96 -8 147 42 99 130 128 232 77z m4103 1 c16 -8 42 -32 57 -52 24
-31 28 -46 28 -99 0 -55 -4 -67 -31 -101 -56 -69 -132 -85 -211 -45 -58 30
-98 111 -88 179 6 39 15 56 51 91 42 40 47 42 105 42 34 0 73 -7 89 -15z
m-9219 -85 c201 -38 397 -183 479 -355 52 -110 71 -196 72 -324 0 -190 -58
-348 -176 -478 -134 -145 -280 -210 -496 -220 -224 -10 -386 53 -540 210 -224
226 -242 663 -40 931 78 103 237 201 374 231 74 16 253 19 327 5z m2256 -169
c1 -68 4 -130 8 -139 5 -12 22 -14 113 -8 60 4 116 4 125 0 15 -5 17 -23 17
-124 0 -98 -3 -119 -16 -124 -9 -3 -67 -6 -130 -6 l-114 0 -2 -117 c-6 -319 4
-387 59 -412 30 -14 98 -14 123 -1 35 19 49 0 81 -103 31 -97 31 -101 13 -114
-37 -27 -129 -46 -224 -47 -128 -1 -187 20 -256 89 -81 81 -87 107 -92 433
l-4 272 -36 1 c-116 4 -112 0 -112 133 0 130 -3 126 90 126 l59 0 3 91 c2 69
7 94 18 100 31 16 236 77 255 76 19 -2 20 -10 22 -126z m7983 94 c133 -30 235
-87 328 -185 82 -87 130 -221 139 -390 15 -286 -103 -507 -327 -617 -136 -66
-194 -76 -515 -82 -154 -3 -290 -4 -302 -2 l-23 3 -2 522 c-3 592 -2 741 6
763 6 14 43 15 314 10 233 -4 325 -9 382 -22z m-6371 -244 c19 -6 60 -33 91
-60 l57 -50 27 28 c15 16 57 44 94 62 63 33 71 34 177 34 97 -1 116 -4 165
-26 81 -39 142 -97 176 -171 l29 -63 5 -388 c3 -239 1 -392 -4 -398 -12 -11
-266 -12 -283 -1 -9 6 -14 91 -18 327 -7 355 -10 369 -74 412 -46 31 -113 31
-158 1 -58 -40 -63 -72 -63 -419 0 -243 -3 -309 -13 -318 -11 -8 -216 -10
-279 -2 -5 1 -8 139 -8 309 0 190 -4 322 -11 346 -34 124 -190 141 -257 28
l-27 -47 -3 -316 -3 -317 -37 -6 c-70 -11 -249 -7 -258 7 -5 6 -9 239 -9 517
l0 505 125 0 125 0 5 -54 5 -54 48 41 c60 52 98 72 161 87 50 11 152 5 215
-14z m2130 3 c79 -20 161 -57 186 -83 16 -19 16 -21 -3 -48 -11 -15 -34 -58
-51 -95 -18 -37 -37 -70 -43 -74 -5 -3 -44 10 -86 30 -112 52 -206 67 -284 46
-46 -13 -68 -34 -68 -65 0 -31 48 -60 142 -86 113 -31 257 -78 288 -94 49 -25
107 -101 120 -156 39 -163 -30 -320 -168 -382 -175 -77 -512 -53 -673 48 -63
40 -63 38 15 175 21 36 40 67 42 69 2 3 22 -5 44 -18 104 -58 286 -95 382 -77
43 8 78 39 78 71 0 36 -52 62 -207 101 -179 45 -214 59 -269 107 -66 58 -97
125 -98 212 -1 169 126 306 310 335 80 12 262 4 343 -16z m-4525 -14 c70 -27
167 -106 217 -178 60 -86 84 -176 83 -317 0 -104 -4 -131 -27 -199 -43 -121
-112 -209 -219 -273 -117 -71 -295 -87 -432 -40 -43 15 -81 26 -83 23 -3 -2
-4 -85 -3 -184 1 -157 -1 -180 -15 -186 -26 -10 -248 -7 -265 4 -13 8 -15 97
-15 682 l0 673 130 0 130 0 -2 -42 c-1 -24 0 -43 2 -43 3 0 29 15 58 34 96 61
157 77 277 72 76 -3 121 -10 164 -26z m5581 4 c22 -10 62 -36 88 -58 l48 -39
40 32 c21 18 69 46 104 63 61 28 71 30 158 26 162 -7 257 -62 317 -184 42 -87
46 -140 40 -549 l-5 -320 -145 0 -145 0 -5 330 c-5 352 -7 362 -59 409 -26 24
-102 32 -141 16 -16 -7 -40 -29 -52 -49 -22 -35 -23 -44 -26 -351 -1 -173 -4
-325 -7 -337 -5 -22 -9 -23 -138 -23 -72 0 -137 4 -144 8 -8 5 -13 96 -15 333
l-3 326 -27 40 c-62 94 -183 78 -241 -30 -21 -40 -22 -56 -27 -357 l-5 -315
-142 -3 c-79 -1 -143 -1 -144 0 0 2 -3 230 -5 507 -3 369 -1 507 7 517 15 18
219 20 237 2 7 -7 12 -32 12 -56 l0 -45 44 41 c44 40 89 68 136 83 45 15 201
4 245 -17z m-4088 -6 c13 -21 3 -1012 -11 -1021 -10 -7 -275 -2 -282 6 -2 2
-4 230 -4 507 -1 403 2 505 12 511 22 14 276 11 285 -3z m2226 0 c2 -7 2 -238
-1 -513 -3 -351 -8 -502 -16 -508 -9 -7 -275 -2 -282 6 -6 6 -6 1006 0 1016
11 16 293 15 299 -1z m4075 5 l22 -5 -2 -512 -3 -511 -134 -3 c-74 -1 -138 1
-142 5 -10 11 -15 1006 -5 1022 6 9 41 12 124 11 65 -1 127 -4 140 -7z m-536
-361 c4 -4 8 -52 10 -107 l3 -100 -320 0 -320 0 -3 103 c-3 98 -2 103 20 111
26 9 600 3 610 -7z"/>
<path d="M3582 10679 c-130 -17 -244 -109 -293 -239 -27 -71 -37 -226 -19
-301 29 -121 105 -219 208 -267 76 -35 232 -43 314 -17 102 34 174 96 225 191
95 181 60 404 -86 536 -92 83 -209 115 -349 97z"/>
<path d="M13640 10629 c0 -8 0 -182 -1 -388 0 -251 3 -377 10 -384 7 -7 56 -8
163 -1 140 10 158 13 219 42 71 34 134 94 168 160 44 87 51 249 15 354 -29 86
-115 166 -219 202 -68 24 -355 36 -355 15z"/>
<path d="M4974 10391 c-78 -20 -127 -82 -143 -181 -26 -159 -6 -276 55 -326
50 -39 59 -42 134 -43 121 -2 193 37 236 126 74 150 24 349 -102 404 -48 22
-136 31 -180 20z"/>
<path d="M16590 11540 c-36 -4 -92 -11 -125 -15 -65 -8 -138 -34 -98 -35 12 0
23 -5 25 -10 2 -7 25 -7 73 0 39 5 126 10 194 10 234 0 435 -57 624 -177 95
-61 167 -121 240 -203 77 -85 97 -118 78 -129 -8 -6 -11 -23 -8 -54 3 -26 0
-50 -6 -56 -6 -6 -12 -42 -13 -79 -3 -70 -9 -113 -24 -147 -13 -30 -22 -92
-26 -170 -2 -38 -8 -71 -14 -73 -5 -2 -10 -22 -10 -45 0 -23 -6 -62 -14 -87
-7 -25 -11 -50 -9 -56 2 -6 -8 -16 -22 -22 -14 -7 -30 -23 -35 -38 -15 -38
-13 -46 9 -34 35 18 49 11 80 -40 33 -54 81 -90 120 -90 24 0 24 0 5 -15 -18
-15 -18 -15 0 -29 27 -22 11 -36 -40 -36 -44 0 -46 -1 -66 -47 -12 -27 -39
-77 -61 -113 -22 -36 -40 -71 -40 -78 0 -6 -14 -27 -30 -45 -16 -17 -36 -42
-45 -55 -13 -20 -96 -81 -142 -105 -8 -4 -28 -16 -45 -26 -75 -49 -195 -105
-250 -118 -40 -9 -116 -14 -230 -13 -221 0 -259 4 -325 29 -30 12 -62 21 -71
21 -10 0 -32 15 -50 33 -20 19 -49 37 -69 41 -35 6 -100 55 -100 74 0 5 -17
17 -38 25 -40 16 -146 123 -136 138 3 5 -1 9 -8 9 -18 0 -41 39 -44 75 -3 42
-54 124 -78 125 -11 0 -16 5 -13 14 6 15 -12 26 -43 26 -23 0 -80 56 -80 78 0
11 9 7 33 -16 36 -35 44 -38 49 -19 3 13 84 87 148 135 55 42 31 89 -40 78
-36 -6 -40 -4 -40 16 0 12 -3 19 -6 15 -8 -7 -34 18 -34 32 0 31 -42 81 -68
81 -11 0 -25 7 -32 15 -7 8 -18 15 -24 15 -6 0 -30 20 -53 44 -40 41 -43 48
-43 98 1 95 36 211 112 366 35 73 47 107 40 114 -8 8 -13 2 -18 -18 -10 -41
-34 -57 -52 -35 -13 15 -13 15 -8 -1 3 -10 1 -18 -4 -18 -6 0 -10 -11 -10 -25
0 -14 -3 -24 -8 -22 -4 1 -8 -2 -9 -7 -1 -5 -6 -12 -11 -15 -18 -11 -73 -163
-100 -276 -23 -97 -26 -131 -26 -280 0 -185 14 -286 61 -424 90 -269 314 -551
537 -676 431 -241 941 -228 1346 33 86 55 320 279 320 306 0 7 9 21 19 30 27
24 122 221 161 331 47 134 61 229 62 405 1 177 -14 266 -69 424 -66 189 -159
339 -301 484 -166 168 -370 281 -602 333 -99 22 -277 31 -370 19z"/>
<path d="M15685 11000 c-3 -5 -2 -10 4 -10 5 0 13 5 16 10 3 6 2 10 -4 10 -5
0 -13 -4 -16 -10z"/>
<path d="M17046 10930 c-59 -18 -116 -96 -137 -187 -11 -49 5 -40 20 11 17 60
73 123 120 137 65 19 116 -6 184 -91 l28 -35 -15 38 c-25 61 -56 98 -100 118
-45 20 -57 21 -100 9z"/>
<path d="M16183 10910 c-34 -23 -64 -65 -82 -115 l-11 -30 20 24 c12 13 24 29
28 35 4 6 22 24 40 39 26 21 44 27 80 27 52 0 81 -16 131 -70 l32 -35 -20 42
c-44 88 -149 128 -218 83z"/>
<path d="M17432 10008 c-7 -7 -12 -18 -12 -24 0 -7 -10 -33 -23 -56 -102 -192
-293 -338 -524 -399 -106 -29 -296 -30 -408 -4 -83 20 -169 57 -158 69 3 3 -3
6 -15 6 -11 0 -22 4 -24 10 -1 5 -12 11 -23 13 -40 8 -72 26 -132 74 -61 49
-138 132 -129 140 2 2 -7 16 -21 31 -14 15 -37 52 -52 82 -15 30 -35 56 -44
58 -60 12 56 -182 175 -293 128 -119 246 -183 413 -225 107 -26 284 -29 391
-6 174 36 337 126 464 255 109 111 188 264 145 278 -6 2 -16 -2 -23 -9z"/>
<path d="M17820 9574 c-12 -19 -21 -37 -18 -39 2 -2 14 14 26 36 28 49 22 52
-8 3z"/>
<path d="M17771 9497 c-13 -21 -12 -21 5 -5 10 10 16 20 13 22 -3 3 -11 -5
-18 -17z"/>
<path d="M17545 9252 c-17 -16 -49 -41 -72 -56 -23 -15 -44 -34 -47 -42 -6
-17 34 7 74 44 14 13 37 31 52 40 26 15 45 42 30 42 -4 0 -21 -13 -37 -28z"/>
<path d="M17360 9115 c-25 -14 -55 -30 -67 -36 -32 -17 -29 -31 5 -18 36 14
112 62 112 72 0 9 1 10 -50 -18z"/>
<path d="M15960 9110 c29 -23 48 -26 31 -6 -6 8 -22 16 -34 20 -21 5 -21 4 3
-14z"/>
<path d="M17180 9025 c-14 -8 -33 -14 -42 -15 -9 0 -23 -6 -30 -13 -11 -11
-135 -37 -298 -63 -42 -7 -43 -7 -19 -16 43 -15 201 16 326 64 62 24 113 46
113 51 0 11 -22 8 -50 -8z"/>
<path d="M16136 9021 c5 -4 23 -11 39 -15 l30 -6 -25 15 c-27 16 -60 21 -44 6z"/>
<path d="M16215 8990 c3 -5 14 -10 23 -10 15 0 15 2 2 10 -20 13 -33 13 -25 0z"/>
<path d="M16264 8972 c3 -6 32 -16 64 -22 31 -6 75 -15 98 -21 22 -6 54 -9 70
-7 19 2 0 9 -61 21 -102 19 -120 23 -154 33 -16 5 -22 4 -17 -4z"/>
</g>
</svg>
