<svg version="1.1" xmlns="http://www.w3.org/2000/svg" viewBox="0 0 1585.077190387511 1032.2778095723465" width="3170.154380775022" height="2064.555619144693">
  <!-- svg-source:excalidraw -->
  
  <defs>
    <style class="style-fonts">
      @font-face {
        font-family: "Virgil";
        src: url("https://excalidraw.com/Virgil.woff2");
      }
      @font-face {
        font-family: "Cascadia";
        src: url("https://excalidraw.com/Cascadia.woff2");
      }
      @font-face {
        font-family: "Assistant";
        src: url("https://excalidraw.com/Assistant-Regular.woff2");
      }
    </style>
    
  </defs>
  <rect x="0" y="0" width="1585.077190387511" height="1032.2778095723465" fill="#ffffff"></rect><g stroke-linecap="round" transform="translate(1099.9338961192157 10) rotate(0 237.57164713414772 72.56324169028153)"><path d="M32 0 C176.55 1.59, 321 1.5, 443.14 0 M32 0 C125.31 -1.12, 219.33 -0.66, 443.14 0 M443.14 0 C463.86 -1.8, 473.56 10.93, 475.14 32 M443.14 0 C466.71 1.08, 473.09 11.12, 475.14 32 M475.14 32 C474.98 49.25, 475.3 69.96, 475.14 113.13 M475.14 32 C474.41 50.89, 474.31 71.43, 475.14 113.13 M475.14 113.13 C474.15 132.72, 464.68 143.53, 443.14 145.13 M475.14 113.13 C476.04 134.03, 463.26 144.09, 443.14 145.13 M443.14 145.13 C287.86 144.4, 133.25 144.48, 32 145.13 M443.14 145.13 C340.8 144.94, 239.12 144.86, 32 145.13 M32 145.13 C9.53 143.75, -0.88 133.49, 0 113.13 M32 145.13 C9.57 146.53, 2.29 133.55, 0 113.13 M0 113.13 C-2.4 90.61, -0.66 67.53, 0 32 M0 113.13 C0.16 82.75, -0.16 52.95, 0 32 M0 32 C-0.21 11.03, 11.39 -0.29, 32 0 M0 32 C0.1 10.37, 10.13 1.28, 32 0" stroke="#1e1e1e" stroke-width="2" fill="none"></path></g><g transform="translate(1196.007603189887 60.0632416902813) rotate(0 141.49794006347656 22.5)"><text x="141.49794006347656" y="0" font-family="Virgil, Segoe UI Emoji" font-size="36px" fill="#1e1e1e" text-anchor="middle" style="white-space: pre;" direction="ltr" dominant-baseline="text-before-edge">Verifier Backend</text></g><g stroke-linecap="round"><g transform="translate(1325.5676297052391 157.56344238371594) rotate(0 3.5598714849975295 432.1739730215286)"><path d="M0.78 -0.87 C1.7 143.21, 5.46 720.67, 6.43 864.71 M-0.27 1.29 C0.97 144.97, 7.81 718.96, 8.79 862.78" stroke="#1e1e1e" stroke-width="2" fill="none"></path></g></g><mask></mask><g mask="url(#mask-qa-MhumlxOeK58qvqISx9)" stroke-linecap="round"><g transform="translate(689.7204278401498 230.37635871132306) rotate(0 319.22171961723063 -1.6638645322552748)"><path d="M-0.69 0.37 C105.51 -0.2, 531.34 -3.66, 637.96 -4.27 M1.16 -0.49 C107.08 -0.85, 530.51 -2.98, 636.76 -3.22" stroke="#2f9e44" stroke-width="2" fill="none"></path></g><g transform="translate(689.7204278401498 230.37635871132306) rotate(0 319.22171961723063 -1.6638645322552748)"><path d="M613.3 5.42 C622.53 1.59, 628.91 0.26, 636.76 -3.22 M613.3 5.42 C619.67 3.13, 628.58 0.84, 636.76 -3.22" stroke="#2f9e44" stroke-width="2" fill="none"></path></g><g transform="translate(689.7204278401498 230.37635871132306) rotate(0 319.22171961723063 -1.6638645322552748)"><path d="M613.23 -11.69 C622.37 -9.27, 628.77 -4.36, 636.76 -3.22 M613.23 -11.69 C619.57 -8.77, 628.5 -5.85, 636.76 -3.22" stroke="#2f9e44" stroke-width="2" fill="none"></path></g></g><mask id="mask-qa-MhumlxOeK58qvqISx9"><rect x="0" y="0" fill="#fff" width="1428.163867074611" height="333.7040877758336"></rect><rect x="949.0561763880448" y="206.21249417906756" fill="#000" width="119.77194213867188" height="45" opacity="1"></rect></mask><g transform="translate(949.0561763880446 206.21249417906756) rotate(0 59.30074418149866 22.212897217646514)"><text x="59.88597106933594" y="0" font-family="Virgil, Segoe UI Emoji" font-size="36px" fill="#2f9e44" text-anchor="middle" style="white-space: pre;" direction="ltr" dominant-baseline="text-before-edge">/sign-in</text></g><g stroke-linecap="round"><g transform="translate(1318.097474329562 365.9889773123309) rotate(0 -322.7696452247619 3.8863921357469735)"><path d="M-0.94 0.61 C-108.58 1.92, -537.87 6.37, -645.49 7.41 M0.77 -0.12 C-107.06 1.41, -538.9 7.46, -646.41 8.75" stroke="#2f9e44" stroke-width="2" fill="none"></path></g><g transform="translate(1318.097474329562 365.9889773123309) rotate(0 -322.7696452247619 3.8863921357469735)"><path d="M-623.03 -0.11 C-629.78 2.72, -639.13 3.76, -646.41 8.75 M-623.03 -0.11 C-627.71 1.18, -633.15 3.32, -646.41 8.75" stroke="#2f9e44" stroke-width="2" fill="none"></path></g><g transform="translate(1318.097474329562 365.9889773123309) rotate(0 -322.7696452247619 3.8863921357469735)"><path d="M-622.8 16.99 C-629.56 14.17, -638.99 9.56, -646.41 8.75 M-622.8 16.99 C-627.56 14.51, -633.05 12.87, -646.41 8.75" stroke="#2f9e44" stroke-width="2" fill="none"></path></g></g><mask></mask><g transform="translate(797.6713405451674 383.5095975964359) rotate(0 199.13392639160156 22.5)"><text x="0" y="0" font-family="Virgil, Segoe UI Emoji" font-size="36px" fill="#2f9e44" text-anchor="start" style="white-space: pre;" direction="ltr" dominant-baseline="text-before-edge">QR Code + session ID</text></g><g mask="url(#mask-hPnfm61gH1mh3JmOTjJe1)" stroke-linecap="round"><g transform="translate(683.6041385773351 818.3320615696452) rotate(0 320.64327903573644 -4.24875041889527)"><path d="M-1.08 -0.95 C105.82 -2.11, 534.29 -5.89, 641.44 -7.33 M0.55 1.17 C107.3 -0.26, 533.77 -7.18, 640.58 -8.84" stroke="#1971c2" stroke-width="2" fill="none"></path></g><g transform="translate(683.6041385773351 818.3320615696452) rotate(0 320.64327903573644 -4.24875041889527)"><path d="M617.22 0.08 C622.78 -2.16, 633.41 -4.2, 640.58 -8.84 M617.22 0.08 C622.42 -2.54, 626.84 -4.18, 640.58 -8.84" stroke="#1971c2" stroke-width="2" fill="none"></path></g><g transform="translate(683.6041385773351 818.3320615696452) rotate(0 320.64327903573644 -4.24875041889527)"><path d="M616.95 -17.02 C622.54 -14.05, 633.25 -10.89, 640.58 -8.84 M616.95 -17.02 C622.24 -16.03, 626.72 -14.07, 640.58 -8.84" stroke="#1971c2" stroke-width="2" fill="none"></path></g></g><mask id="mask-hPnfm61gH1mh3JmOTjJe1"><rect x="0" y="0" fill="#fff" width="1424.890696648808" height="926.8295624074358"></rect><rect x="783.3155023298687" y="791.58331115075" fill="#000" width="441.86383056640625" height="45" opacity="1"></rect></mask><g transform="translate(783.3155023298687 791.58331115075) rotate(0 220.47062194384614 22.91246491396805)"><text x="220.93191528320312" y="0" font-family="Virgil, Segoe UI Emoji" font-size="36px" fill="#1971c2" text-anchor="middle" style="white-space: pre;" direction="ltr" dominant-baseline="text-before-edge">/status?sessionID=6736</text></g><g mask="url(#mask-KCQ29KloCIKGl1aZC2q2G)" stroke-linecap="round"><g transform="translate(1324.0146656346028 961.5710963105116) rotate(0 -322.0528925767758 -1.3060826029968666)"><path d="M1.17 0.56 C-106.2 0.14, -537.49 -1.9, -645.18 -2.37 M0.32 -0.18 C-106.61 -1, -535.89 -3.67, -643.03 -4.37" stroke="#1971c2" stroke-width="2" fill="none"></path></g><g transform="translate(1324.0146656346028 961.5710963105116) rotate(0 -322.0528925767758 -1.3060826029968666)"><path d="M-619.48 -12.77 C-623.73 -12.47, -629.48 -10.25, -643.03 -4.37 M-619.48 -12.77 C-627.98 -10.09, -634.67 -7.88, -643.03 -4.37" stroke="#1971c2" stroke-width="2" fill="none"></path></g><g transform="translate(1324.0146656346028 961.5710963105116) rotate(0 -322.0528925767758 -1.3060826029968666)"><path d="M-619.59 4.33 C-623.84 0.85, -629.56 -0.71, -643.03 -4.37 M-619.59 4.33 C-627.9 1.37, -634.55 -2.05, -643.03 -4.37" stroke="#1971c2" stroke-width="2" fill="none"></path></g></g><mask id="mask-KCQ29KloCIKGl1aZC2q2G"><rect x="0" y="0" fill="#fff" width="2068.1204507881544" height="1064.1832615165054"></rect><rect x="962.7757913073387" y="937.7650137075143" fill="#000" width="78.37196350097656" height="45" opacity="1"></rect></mask><g transform="translate(962.7757913073387 937.7650137075152) rotate(0 39.233422273024985 21.902648001518173)"><text x="39.18598175048828" y="0" font-family="Virgil, Segoe UI Emoji" font-size="36px" fill="#1971c2" text-anchor="middle" style="white-space: pre;" direction="ltr" dominant-baseline="text-before-edge">JWZ</text></g><g stroke-linecap="round" transform="translate(535.9746380073241 193.088343630704) rotate(0 63.9419178660695 38.26851694988886)"><path d="M0 0 C42.97 0.34, 86.96 -0.66, 127.88 0 M0 0 C29.24 -0.9, 59.95 -0.94, 127.88 0 M127.88 0 C126.49 16.68, 127.69 35.25, 127.88 76.54 M127.88 0 C127.29 26.72, 127.36 51.31, 127.88 76.54 M127.88 76.54 C90.7 76.3, 50.79 77, 0 76.54 M127.88 76.54 C96.08 76.27, 63.21 76.4, 0 76.54 M0 76.54 C2.35 56.48, -0.13 39.68, 0 0 M0 76.54 C0.67 52.77, 1.39 30.52, 0 0" stroke="#000000" stroke-width="1" fill="none"></path></g><g stroke-linecap="round"><g transform="translate(534.8990402564289 203.8048780229483) rotate(0 64.42096614922218 0)"><path d="M0.35 -1.09 C21.75 -1.08, 107.19 -1.06, 128.6 -0.8 M-0.92 0.96 C20.27 1.18, 106.04 0.75, 127.52 0.32" stroke="#000000" stroke-width="1" fill="none"></path></g></g><mask></mask><g stroke-linecap="round" transform="translate(540.462673476279 197.35991343071282) rotate(0 2.5009765625 2.5009765625)"><path d="M5 2.5 C5 2.65, 4.99 2.79, 4.96 2.94 C4.94 3.08, 4.9 3.22, 4.85 3.36 C4.8 3.49, 4.74 3.63, 4.67 3.75 C4.59 3.88, 4.51 4, 4.42 4.11 C4.32 4.22, 4.22 4.32, 4.11 4.42 C4 4.51, 3.88 4.59, 3.75 4.67 C3.63 4.74, 3.49 4.8, 3.36 4.85 C3.22 4.9, 3.08 4.94, 2.94 4.96 C2.79 4.99, 2.65 5, 2.5 5 C2.36 5, 2.21 4.99, 2.07 4.96 C1.92 4.94, 1.78 4.9, 1.65 4.85 C1.51 4.8, 1.38 4.74, 1.25 4.67 C1.13 4.59, 1 4.51, 0.89 4.42 C0.78 4.32, 0.68 4.22, 0.59 4.11 C0.49 4, 0.41 3.88, 0.34 3.75 C0.26 3.63, 0.2 3.49, 0.15 3.36 C0.1 3.22, 0.06 3.08, 0.04 2.94 C0.01 2.79, 0 2.65, 0 2.5 C0 2.36, 0.01 2.21, 0.04 2.07 C0.06 1.92, 0.1 1.78, 0.15 1.65 C0.2 1.51, 0.26 1.38, 0.34 1.25 C0.41 1.13, 0.49 1, 0.59 0.89 C0.68 0.78, 0.78 0.68, 0.89 0.59 C1 0.49, 1.13 0.41, 1.25 0.34 C1.38 0.26, 1.51 0.2, 1.65 0.15 C1.78 0.1, 1.92 0.06, 2.07 0.04 C2.21 0.01, 2.36 0, 2.5 0 C2.65 0, 2.79 0.01, 2.94 0.04 C3.08 0.06, 3.22 0.1, 3.36 0.15 C3.49 0.2, 3.63 0.26, 3.75 0.34 C3.88 0.41, 4 0.49, 4.11 0.59 C4.22 0.68, 4.32 0.78, 4.42 0.89 C4.51 1, 4.59 1.13, 4.67 1.25 C4.74 1.38, 4.8 1.51, 4.85 1.65 C4.9 1.78, 4.94 1.92, 4.96 2.07 C4.99 2.21, 5 2.43, 5 2.5 C5.01 2.57, 5.01 2.43, 5 2.5" stroke="none" stroke-width="0" fill="#fa5252"></path><path d="M5 2.5 C5 2.65, 4.99 2.79, 4.96 2.94 C4.94 3.08, 4.9 3.22, 4.85 3.36 C4.8 3.49, 4.74 3.63, 4.67 3.75 C4.59 3.88, 4.51 4, 4.42 4.11 C4.32 4.22, 4.22 4.32, 4.11 4.42 C4 4.51, 3.88 4.59, 3.75 4.67 C3.63 4.74, 3.49 4.8, 3.36 4.85 C3.22 4.9, 3.08 4.94, 2.94 4.96 C2.79 4.99, 2.65 5, 2.5 5 C2.36 5, 2.21 4.99, 2.07 4.96 C1.92 4.94, 1.78 4.9, 1.65 4.85 C1.51 4.8, 1.38 4.74, 1.25 4.67 C1.13 4.59, 1 4.51, 0.89 4.42 C0.78 4.32, 0.68 4.22, 0.59 4.11 C0.49 4, 0.41 3.88, 0.34 3.75 C0.26 3.63, 0.2 3.49, 0.15 3.36 C0.1 3.22, 0.06 3.08, 0.04 2.94 C0.01 2.79, 0 2.65, 0 2.5 C0 2.36, 0.01 2.21, 0.04 2.07 C0.06 1.92, 0.1 1.78, 0.15 1.65 C0.2 1.51, 0.26 1.38, 0.34 1.25 C0.41 1.13, 0.49 1, 0.59 0.89 C0.68 0.78, 0.78 0.68, 0.89 0.59 C1 0.49, 1.13 0.41, 1.25 0.34 C1.38 0.26, 1.51 0.2, 1.65 0.15 C1.78 0.1, 1.92 0.06, 2.07 0.04 C2.21 0.01, 2.36 0, 2.5 0 C2.65 0, 2.79 0.01, 2.94 0.04 C3.08 0.06, 3.22 0.1, 3.36 0.15 C3.49 0.2, 3.63 0.26, 3.75 0.34 C3.88 0.41, 4 0.49, 4.11 0.59 C4.22 0.68, 4.32 0.78, 4.42 0.89 C4.51 1, 4.59 1.13, 4.67 1.25 C4.74 1.38, 4.8 1.51, 4.85 1.65 C4.9 1.78, 4.94 1.92, 4.96 2.07 C4.99 2.21, 5 2.43, 5 2.5 C5.01 2.57, 5.01 2.43, 5 2.5" stroke="#000000" stroke-width="1" fill="none"></path></g><g stroke-linecap="round" transform="translate(550.725368788779 197.35991343071282) rotate(0 2.5009765625 2.5009765625)"><path d="M5 2.5 C5 2.65, 4.99 2.79, 4.96 2.94 C4.94 3.08, 4.9 3.22, 4.85 3.36 C4.8 3.49, 4.74 3.63, 4.67 3.75 C4.59 3.88, 4.51 4, 4.42 4.11 C4.32 4.22, 4.22 4.32, 4.11 4.42 C4 4.51, 3.88 4.59, 3.75 4.67 C3.63 4.74, 3.49 4.8, 3.36 4.85 C3.22 4.9, 3.08 4.94, 2.94 4.96 C2.79 4.99, 2.65 5, 2.5 5 C2.36 5, 2.21 4.99, 2.07 4.96 C1.92 4.94, 1.78 4.9, 1.65 4.85 C1.51 4.8, 1.38 4.74, 1.25 4.67 C1.13 4.59, 1 4.51, 0.89 4.42 C0.78 4.32, 0.68 4.22, 0.59 4.11 C0.49 4, 0.41 3.88, 0.34 3.75 C0.26 3.63, 0.2 3.49, 0.15 3.36 C0.1 3.22, 0.06 3.08, 0.04 2.94 C0.01 2.79, 0 2.65, 0 2.5 C0 2.36, 0.01 2.21, 0.04 2.07 C0.06 1.92, 0.1 1.78, 0.15 1.65 C0.2 1.51, 0.26 1.38, 0.34 1.25 C0.41 1.13, 0.49 1, 0.59 0.89 C0.68 0.78, 0.78 0.68, 0.89 0.59 C1 0.49, 1.13 0.41, 1.25 0.34 C1.38 0.26, 1.51 0.2, 1.65 0.15 C1.78 0.1, 1.92 0.06, 2.07 0.04 C2.21 0.01, 2.36 0, 2.5 0 C2.65 0, 2.79 0.01, 2.94 0.04 C3.08 0.06, 3.22 0.1, 3.36 0.15 C3.49 0.2, 3.63 0.26, 3.75 0.34 C3.88 0.41, 4 0.49, 4.11 0.59 C4.22 0.68, 4.32 0.78, 4.42 0.89 C4.51 1, 4.59 1.13, 4.67 1.25 C4.74 1.38, 4.8 1.51, 4.85 1.65 C4.9 1.78, 4.94 1.92, 4.96 2.07 C4.99 2.21, 5 2.43, 5 2.5 C5.01 2.57, 5.01 2.43, 5 2.5" stroke="none" stroke-width="0" fill="#fab005"></path><path d="M5 2.5 C5 2.65, 4.99 2.79, 4.96 2.94 C4.94 3.08, 4.9 3.22, 4.85 3.36 C4.8 3.49, 4.74 3.63, 4.67 3.75 C4.59 3.88, 4.51 4, 4.42 4.11 C4.32 4.22, 4.22 4.32, 4.11 4.42 C4 4.51, 3.88 4.59, 3.75 4.67 C3.63 4.74, 3.49 4.8, 3.36 4.85 C3.22 4.9, 3.08 4.94, 2.94 4.96 C2.79 4.99, 2.65 5, 2.5 5 C2.36 5, 2.21 4.99, 2.07 4.96 C1.92 4.94, 1.78 4.9, 1.65 4.85 C1.51 4.8, 1.38 4.74, 1.25 4.67 C1.13 4.59, 1 4.51, 0.89 4.42 C0.78 4.32, 0.68 4.22, 0.59 4.11 C0.49 4, 0.41 3.88, 0.34 3.75 C0.26 3.63, 0.2 3.49, 0.15 3.36 C0.1 3.22, 0.06 3.08, 0.04 2.94 C0.01 2.79, 0 2.65, 0 2.5 C0 2.36, 0.01 2.21, 0.04 2.07 C0.06 1.92, 0.1 1.78, 0.15 1.65 C0.2 1.51, 0.26 1.38, 0.34 1.25 C0.41 1.13, 0.49 1, 0.59 0.89 C0.68 0.78, 0.78 0.68, 0.89 0.59 C1 0.49, 1.13 0.41, 1.25 0.34 C1.38 0.26, 1.51 0.2, 1.65 0.15 C1.78 0.1, 1.92 0.06, 2.07 0.04 C2.21 0.01, 2.36 0, 2.5 0 C2.65 0, 2.79 0.01, 2.94 0.04 C3.08 0.06, 3.22 0.1, 3.36 0.15 C3.49 0.2, 3.63 0.26, 3.75 0.34 C3.88 0.41, 4 0.49, 4.11 0.59 C4.22 0.68, 4.32 0.78, 4.42 0.89 C4.51 1, 4.59 1.13, 4.67 1.25 C4.74 1.38, 4.8 1.51, 4.85 1.65 C4.9 1.78, 4.94 1.92, 4.96 2.07 C4.99 2.21, 5 2.43, 5 2.5 C5.01 2.57, 5.01 2.43, 5 2.5" stroke="#000000" stroke-width="1" fill="none"></path></g><g stroke-linecap="round" transform="translate(561.4387852551251 197.810634584559) rotate(0 2.5009765625 2.5009765625)"><path d="M5 2.5 C5 2.65, 4.99 2.79, 4.96 2.94 C4.94 3.08, 4.9 3.22, 4.85 3.36 C4.8 3.49, 4.74 3.63, 4.67 3.75 C4.59 3.88, 4.51 4, 4.42 4.11 C4.32 4.22, 4.22 4.32, 4.11 4.42 C4 4.51, 3.88 4.59, 3.75 4.67 C3.63 4.74, 3.49 4.8, 3.36 4.85 C3.22 4.9, 3.08 4.94, 2.94 4.96 C2.79 4.99, 2.65 5, 2.5 5 C2.36 5, 2.21 4.99, 2.07 4.96 C1.92 4.94, 1.78 4.9, 1.65 4.85 C1.51 4.8, 1.38 4.74, 1.25 4.67 C1.13 4.59, 1 4.51, 0.89 4.42 C0.78 4.32, 0.68 4.22, 0.59 4.11 C0.49 4, 0.41 3.88, 0.34 3.75 C0.26 3.63, 0.2 3.49, 0.15 3.36 C0.1 3.22, 0.06 3.08, 0.04 2.94 C0.01 2.79, 0 2.65, 0 2.5 C0 2.36, 0.01 2.21, 0.04 2.07 C0.06 1.92, 0.1 1.78, 0.15 1.65 C0.2 1.51, 0.26 1.38, 0.34 1.25 C0.41 1.13, 0.49 1, 0.59 0.89 C0.68 0.78, 0.78 0.68, 0.89 0.59 C1 0.49, 1.13 0.41, 1.25 0.34 C1.38 0.26, 1.51 0.2, 1.65 0.15 C1.78 0.1, 1.92 0.06, 2.07 0.04 C2.21 0.01, 2.36 0, 2.5 0 C2.65 0, 2.79 0.01, 2.94 0.04 C3.08 0.06, 3.22 0.1, 3.36 0.15 C3.49 0.2, 3.63 0.26, 3.75 0.34 C3.88 0.41, 4 0.49, 4.11 0.59 C4.22 0.68, 4.32 0.78, 4.42 0.89 C4.51 1, 4.59 1.13, 4.67 1.25 C4.74 1.38, 4.8 1.51, 4.85 1.65 C4.9 1.78, 4.94 1.92, 4.96 2.07 C4.99 2.21, 5 2.43, 5 2.5 C5.01 2.57, 5.01 2.43, 5 2.5" stroke="none" stroke-width="0" fill="#40c057"></path><path d="M5 2.5 C5 2.65, 4.99 2.79, 4.96 2.94 C4.94 3.08, 4.9 3.22, 4.85 3.36 C4.8 3.49, 4.74 3.63, 4.67 3.75 C4.59 3.88, 4.51 4, 4.42 4.11 C4.32 4.22, 4.22 4.32, 4.11 4.42 C4 4.51, 3.88 4.59, 3.75 4.67 C3.63 4.74, 3.49 4.8, 3.36 4.85 C3.22 4.9, 3.08 4.94, 2.94 4.96 C2.79 4.99, 2.65 5, 2.5 5 C2.36 5, 2.21 4.99, 2.07 4.96 C1.92 4.94, 1.78 4.9, 1.65 4.85 C1.51 4.8, 1.38 4.74, 1.25 4.67 C1.13 4.59, 1 4.51, 0.89 4.42 C0.78 4.32, 0.68 4.22, 0.59 4.11 C0.49 4, 0.41 3.88, 0.34 3.75 C0.26 3.63, 0.2 3.49, 0.15 3.36 C0.1 3.22, 0.06 3.08, 0.04 2.94 C0.01 2.79, 0 2.65, 0 2.5 C0 2.36, 0.01 2.21, 0.04 2.07 C0.06 1.92, 0.1 1.78, 0.15 1.65 C0.2 1.51, 0.26 1.38, 0.34 1.25 C0.41 1.13, 0.49 1, 0.59 0.89 C0.68 0.78, 0.78 0.68, 0.89 0.59 C1 0.49, 1.13 0.41, 1.25 0.34 C1.38 0.26, 1.51 0.2, 1.65 0.15 C1.78 0.1, 1.92 0.06, 2.07 0.04 C2.21 0.01, 2.36 0, 2.5 0 C2.65 0, 2.79 0.01, 2.94 0.04 C3.08 0.06, 3.22 0.1, 3.36 0.15 C3.49 0.2, 3.63 0.26, 3.75 0.34 C3.88 0.41, 4 0.49, 4.11 0.59 C4.22 0.68, 4.32 0.78, 4.42 0.89 C4.51 1, 4.59 1.13, 4.67 1.25 C4.74 1.38, 4.8 1.51, 4.85 1.65 C4.9 1.78, 4.94 1.92, 4.96 2.07 C4.99 2.21, 5 2.43, 5 2.5 C5.01 2.57, 5.01 2.43, 5 2.5" stroke="#000000" stroke-width="1" fill="none"></path></g><g stroke-opacity="0.9" fill-opacity="0.9" stroke-linecap="round" transform="translate(577.4658462447524 213.86300346257485) rotate(0 21.360101269687902 21.360101269687902)"><path d="M17.64 0.17 C21.86 -0.93, 28.2 0.42, 32.18 2.74 C36.16 5.07, 39.96 9.81, 41.5 14.12 C43.03 18.42, 42.96 24.21, 41.36 28.57 C39.77 32.93, 35.93 37.94, 31.94 40.27 C27.95 42.6, 21.88 43.44, 17.42 42.56 C12.95 41.67, 8.02 38.41, 5.16 34.96 C2.3 31.51, 0.29 26.45, 0.23 21.86 C0.16 17.28, 1.78 11.14, 4.76 7.46 C7.73 3.77, 15.7 0.94, 18.09 -0.25 C20.47 -1.44, 19.04 -0.14, 19.07 0.31 M16.2 0.22 C20.23 -0.97, 26.61 0.22, 30.83 2.24 C35.05 4.27, 39.63 8.21, 41.52 12.36 C43.42 16.5, 43.56 22.58, 42.2 27.11 C40.84 31.64, 37.3 37.08, 33.37 39.55 C29.44 42.02, 23.21 42.51, 18.63 41.91 C14.06 41.31, 8.91 39.16, 5.92 35.94 C2.93 32.73, 0.9 27.2, 0.71 22.63 C0.53 18.06, 2.28 12.17, 4.82 8.53 C7.37 4.89, 14.12 1.95, 15.99 0.79 C17.87 -0.36, 15.97 1.36, 16.05 1.59" stroke="none" stroke-width="0" fill="#04aaf7"></path><path d="M17.96 -0.2 C22.27 -1.22, 28.6 0.3, 32.57 2.75 C36.55 5.2, 40.41 10.12, 41.81 14.49 C43.21 18.86, 42.61 24.72, 40.97 28.96 C39.32 33.21, 35.97 37.72, 31.94 39.94 C27.91 42.16, 21.31 43.12, 16.81 42.29 C12.3 41.46, 7.66 38.59, 4.91 34.97 C2.16 31.34, 0.25 25.18, 0.31 20.54 C0.37 15.9, 2.23 10.49, 5.28 7.12 C8.34 3.75, 16.23 1.4, 18.63 0.31 C21.04 -0.78, 19.68 0.32, 19.72 0.59 M19.47 0.88 C23.77 0.16, 29.08 0.98, 32.91 3.4 C36.75 5.82, 41.26 10.98, 42.49 15.4 C43.71 19.81, 42.22 25.75, 40.27 29.88 C38.33 34.01, 34.74 38.05, 30.83 40.17 C26.93 42.29, 21.23 43.53, 16.86 42.59 C12.48 41.64, 7.4 38.23, 4.58 34.51 C1.77 30.79, -0.28 24.91, -0.01 20.25 C0.27 15.59, 3.05 9.83, 6.24 6.53 C9.43 3.22, 17.03 1.39, 19.15 0.4 C21.27 -0.59, 18.95 0.31, 18.95 0.59" stroke="#000000" stroke-width="1" fill="none"></path></g><g stroke-linecap="round"><g transform="translate(604.5440103067278 230.0873555270323) rotate(0 -3.3114080732229922 5.948935990064456)" fill-rule="evenodd"><path d="M0 0 C-0.31 -0.07, -0.57 0.63, -1.83 -0.41 C-3.09 -1.46, -5.98 -5.62, -7.57 -6.27 C-9.16 -6.93, -10.52 -5.79, -11.36 -4.35 C-12.2 -2.91, -12.63 0.53, -12.61 2.37 C-12.6 4.22, -10.47 5.65, -11.27 6.74 C-12.07 7.83, -16.44 7.74, -17.42 8.89 C-18.41 10.04, -18.04 12.9, -17.2 13.64 C-16.36 14.39, -13.8 14.04, -12.38 13.35 C-10.96 12.66, -10.16 8.72, -8.7 9.48 C-7.24 10.23, -5 16.42, -3.62 17.87 C-2.24 19.32, -0.39 20.35, -0.42 18.17 C-0.44 15.99, -4.08 7.1, -3.78 4.8 C-3.48 2.5, 0.23 4.17, 1.39 4.35 C2.54 4.53, 1.85 5.61, 3.16 5.87 C4.47 6.12, 7.96 6.74, 9.24 5.87 C10.51 5, 11.64 1.43, 10.8 0.63 C9.97 -0.16, 5.11 2.18, 4.22 1.11 C3.34 0.04, 5.78 -4.68, 5.49 -5.76 C5.19 -6.84, 3.43 -6.15, 2.47 -5.35 C1.52 -4.54, 0.17 -1.81, -0.24 -0.92 C-0.65 -0.03, -0.04 -0.15, 0 0" stroke="none" stroke-width="0" fill="#40c057" fill-rule="evenodd"></path><path d="M0 0 C-0.31 -0.07, -0.57 0.63, -1.83 -0.41 C-3.09 -1.46, -5.98 -5.62, -7.57 -6.27 C-9.16 -6.93, -10.52 -5.79, -11.36 -4.35 C-12.2 -2.91, -12.63 0.53, -12.61 2.37 C-12.6 4.22, -10.47 5.65, -11.27 6.74 C-12.07 7.83, -16.44 7.74, -17.42 8.89 C-18.41 10.04, -18.04 12.9, -17.2 13.64 C-16.36 14.39, -13.8 14.04, -12.38 13.35 C-10.96 12.66, -10.16 8.72, -8.7 9.48 C-7.24 10.23, -5 16.42, -3.62 17.87 C-2.24 19.32, -0.39 20.35, -0.42 18.17 C-0.44 15.99, -4.08 7.1, -3.78 4.8 C-3.48 2.5, 0.23 4.17, 1.39 4.35 C2.54 4.53, 1.85 5.61, 3.16 5.87 C4.47 6.12, 7.96 6.74, 9.24 5.87 C10.51 5, 11.64 1.43, 10.8 0.63 C9.97 -0.16, 5.11 2.18, 4.22 1.11 C3.34 0.04, 5.78 -4.68, 5.49 -5.76 C5.19 -6.84, 3.43 -6.15, 2.47 -5.35 C1.52 -4.54, 0.17 -1.81, -0.24 -0.92 C-0.65 -0.03, -0.04 -0.15, 0 0 M0 0 C-0.31 -0.07, -0.57 0.63, -1.83 -0.41 C-3.09 -1.46, -5.98 -5.62, -7.57 -6.27 C-9.16 -6.93, -10.52 -5.79, -11.36 -4.35 C-12.2 -2.91, -12.63 0.53, -12.61 2.37 C-12.6 4.22, -10.47 5.65, -11.27 6.74 C-12.07 7.83, -16.44 7.74, -17.42 8.89 C-18.41 10.04, -18.04 12.9, -17.2 13.64 C-16.36 14.39, -13.8 14.04, -12.38 13.35 C-10.96 12.66, -10.16 8.72, -8.7 9.48 C-7.24 10.23, -5 16.42, -3.62 17.87 C-2.24 19.32, -0.39 20.35, -0.42 18.17 C-0.44 15.99, -4.08 7.1, -3.78 4.8 C-3.48 2.5, 0.23 4.17, 1.39 4.35 C2.54 4.53, 1.85 5.61, 3.16 5.87 C4.47 6.12, 7.96 6.74, 9.24 5.87 C10.51 5, 11.64 1.43, 10.8 0.63 C9.97 -0.16, 5.11 2.18, 4.22 1.11 C3.34 0.04, 5.78 -4.68, 5.49 -5.76 C5.19 -6.84, 3.43 -6.15, 2.47 -5.35 C1.52 -4.54, 0.17 -1.81, -0.24 -0.92 C-0.65 -0.03, -0.04 -0.15, 0 0" stroke="#087f5b" stroke-width="1" fill="none"></path></g></g><mask></mask><g stroke-linecap="round"><g stroke-opacity="0.9" fill-opacity="0.9" transform="translate(578.5249087187799 234.82587702575574) rotate(0 21.047557886136133 0)"><path d="M0.26 -0.27 C7.25 -0.22, 34.72 -0.03, 41.62 0.06 M-0.27 0.77 C6.91 0.95, 35.44 1.04, 42.61 0.78" stroke="#000000" stroke-width="1" fill="none"></path></g></g><mask></mask><g stroke-linecap="round"><g stroke-opacity="0.9" fill-opacity="0.9" transform="translate(583.6202377485542 219.39134809878988) rotate(0 14.659303301924297 2.593116626464507)"><path d="M0 0 C0.13 0.38, 0.09 1.58, 0.77 2.28 C1.46 2.97, 2.81 3.68, 4.1 4.19 C5.4 4.7, 6.64 5.13, 8.54 5.34 C10.43 5.55, 12.97 5.55, 15.48 5.45 C17.99 5.34, 21.44 5.28, 23.58 4.71 C25.72 4.14, 27.36 2.86, 28.32 2.03 C29.27 1.2, 29.15 0.12, 29.32 -0.26 M0 0 C0.13 0.38, 0.09 1.58, 0.77 2.28 C1.46 2.97, 2.81 3.68, 4.1 4.19 C5.4 4.7, 6.64 5.13, 8.54 5.34 C10.43 5.55, 12.97 5.55, 15.48 5.45 C17.99 5.34, 21.44 5.28, 23.58 4.71 C25.72 4.14, 27.36 2.86, 28.32 2.03 C29.27 1.2, 29.15 0.12, 29.32 -0.26" stroke="#000000" stroke-width="1" fill="none"></path></g></g><mask></mask><g stroke-opacity="0.9" fill-opacity="0.9" stroke-linecap="round" transform="translate(591.6941536724737 212.48047383298217) rotate(0 7.764217176558077 22.41115194065469)"><path d="M7.79 -0.17 C9.36 -0.63, 10.88 1.6, 12.18 4.59 C13.48 7.59, 15.14 13.17, 15.6 17.81 C16.07 22.45, 15.78 28.24, 14.96 32.44 C14.14 36.64, 12.3 41.09, 10.68 43.01 C9.05 44.93, 6.76 45.37, 5.2 43.97 C3.65 42.57, 2.25 38.73, 1.35 34.6 C0.44 30.47, -0.38 24.02, -0.22 19.21 C-0.07 14.39, 1.01 8.84, 2.28 5.69 C3.56 2.54, 6.4 1.21, 7.42 0.31 C8.45 -0.6, 8.39 -0.14, 8.41 0.25 M7.86 -0.34 C9.64 -0.48, 12.04 2.62, 13.38 5.89 C14.71 9.16, 15.69 14.58, 15.86 19.28 C16.03 23.99, 15.26 30.08, 14.39 34.11 C13.52 38.14, 12.2 41.89, 10.66 43.48 C9.12 45.07, 6.79 45.33, 5.16 43.65 C3.53 41.97, 1.74 37.68, 0.88 33.42 C0.03 29.16, -0.36 22.9, 0.04 18.08 C0.43 13.27, 2.05 7.47, 3.26 4.52 C4.48 1.57, 6.48 1.05, 7.33 0.38 C8.18 -0.3, 8.32 0.12, 8.37 0.47" stroke="#000000" stroke-width="1" fill="none"></path></g><g stroke-linecap="round"><g stroke-opacity="0.9" fill-opacity="0.9" transform="translate(585.1361892581801 251.12844015723067) rotate(0 14.659303301924297 -2.6770512214206974)"><path d="M0 0 C0.68 -0.72, 2.68 -3.4, 4.1 -4.32 C5.53 -5.24, 6.64 -5.3, 8.54 -5.52 C10.43 -5.73, 12.97 -5.73, 15.48 -5.63 C17.99 -5.52, 21.44 -5.45, 23.58 -4.86 C25.72 -4.28, 27.36 -2.95, 28.32 -2.1 C29.27 -1.24, 29.15 -0.12, 29.32 0.27 M0 0 C0.68 -0.72, 2.68 -3.4, 4.1 -4.32 C5.53 -5.24, 6.64 -5.3, 8.54 -5.52 C10.43 -5.73, 12.97 -5.73, 15.48 -5.63 C17.99 -5.52, 21.44 -5.45, 23.58 -4.86 C25.72 -4.28, 27.36 -2.95, 28.32 -2.1 C29.27 -1.24, 29.15 -0.12, 29.32 0.27" stroke="#000000" stroke-width="1" fill="none"></path></g></g><mask></mask><g stroke-linecap="round" transform="translate(536.5400762074019 335.140754543238) rotate(0 63.9419178660695 38.26851694988886)"><path d="M0 0 C37.54 -0.19, 70.81 0.58, 127.88 0 M0 0 C44.62 -0.93, 90.11 -1.27, 127.88 0 M127.88 0 C126.92 24.13, 127.18 50.05, 127.88 76.54 M127.88 0 C127.96 19.08, 129.19 38.69, 127.88 76.54 M127.88 76.54 C99.63 78.02, 74.44 77.71, 0 76.54 M127.88 76.54 C81.39 76.88, 34.21 77.35, 0 76.54 M0 76.54 C-0.5 55.82, -1.51 31.46, 0 0 M0 76.54 C-0.84 50.08, -0.73 23.12, 0 0" stroke="#000000" stroke-width="1" fill="none"></path></g><g stroke-linecap="round"><g transform="translate(535.4644784565066 345.8572889354823) rotate(0 64.42096614922218 0)"><path d="M-0.46 -0.7 C21.1 -0.75, 107.17 0.4, 128.84 0.64 M1.5 1.55 C22.95 1.07, 106.61 -0.69, 127.9 -1.15" stroke="#000000" stroke-width="1" fill="none"></path></g></g><mask></mask><g stroke-linecap="round" transform="translate(541.0281116763567 339.41232434324684) rotate(0 2.5009765625 2.5009765625)"><path d="M5 2.5 C5 2.65, 4.99 2.79, 4.96 2.94 C4.94 3.08, 4.9 3.22, 4.85 3.36 C4.8 3.49, 4.74 3.63, 4.67 3.75 C4.59 3.88, 4.51 4, 4.42 4.11 C4.32 4.22, 4.22 4.32, 4.11 4.42 C4 4.51, 3.88 4.59, 3.75 4.67 C3.63 4.74, 3.49 4.8, 3.36 4.85 C3.22 4.9, 3.08 4.94, 2.94 4.96 C2.79 4.99, 2.65 5, 2.5 5 C2.36 5, 2.21 4.99, 2.07 4.96 C1.92 4.94, 1.78 4.9, 1.65 4.85 C1.51 4.8, 1.38 4.74, 1.25 4.67 C1.13 4.59, 1 4.51, 0.89 4.42 C0.78 4.32, 0.68 4.22, 0.59 4.11 C0.49 4, 0.41 3.88, 0.34 3.75 C0.26 3.63, 0.2 3.49, 0.15 3.36 C0.1 3.22, 0.06 3.08, 0.04 2.94 C0.01 2.79, 0 2.65, 0 2.5 C0 2.36, 0.01 2.21, 0.04 2.07 C0.06 1.92, 0.1 1.78, 0.15 1.65 C0.2 1.51, 0.26 1.38, 0.34 1.25 C0.41 1.13, 0.49 1, 0.59 0.89 C0.68 0.78, 0.78 0.68, 0.89 0.59 C1 0.49, 1.13 0.41, 1.25 0.34 C1.38 0.26, 1.51 0.2, 1.65 0.15 C1.78 0.1, 1.92 0.06, 2.07 0.04 C2.21 0.01, 2.36 0, 2.5 0 C2.65 0, 2.79 0.01, 2.94 0.04 C3.08 0.06, 3.22 0.1, 3.36 0.15 C3.49 0.2, 3.63 0.26, 3.75 0.34 C3.88 0.41, 4 0.49, 4.11 0.59 C4.22 0.68, 4.32 0.78, 4.42 0.89 C4.51 1, 4.59 1.13, 4.67 1.25 C4.74 1.38, 4.8 1.51, 4.85 1.65 C4.9 1.78, 4.94 1.92, 4.96 2.07 C4.99 2.21, 5 2.43, 5 2.5 C5.01 2.57, 5.01 2.43, 5 2.5" stroke="none" stroke-width="0" fill="#fa5252"></path><path d="M5 2.5 C5 2.65, 4.99 2.79, 4.96 2.94 C4.94 3.08, 4.9 3.22, 4.85 3.36 C4.8 3.49, 4.74 3.63, 4.67 3.75 C4.59 3.88, 4.51 4, 4.42 4.11 C4.32 4.22, 4.22 4.32, 4.11 4.42 C4 4.51, 3.88 4.59, 3.75 4.67 C3.63 4.74, 3.49 4.8, 3.36 4.85 C3.22 4.9, 3.08 4.94, 2.94 4.96 C2.79 4.99, 2.65 5, 2.5 5 C2.36 5, 2.21 4.99, 2.07 4.96 C1.92 4.94, 1.78 4.9, 1.65 4.85 C1.51 4.8, 1.38 4.74, 1.25 4.67 C1.13 4.59, 1 4.51, 0.89 4.42 C0.78 4.32, 0.68 4.22, 0.59 4.11 C0.49 4, 0.41 3.88, 0.34 3.75 C0.26 3.63, 0.2 3.49, 0.15 3.36 C0.1 3.22, 0.06 3.08, 0.04 2.94 C0.01 2.79, 0 2.65, 0 2.5 C0 2.36, 0.01 2.21, 0.04 2.07 C0.06 1.92, 0.1 1.78, 0.15 1.65 C0.2 1.51, 0.26 1.38, 0.34 1.25 C0.41 1.13, 0.49 1, 0.59 0.89 C0.68 0.78, 0.78 0.68, 0.89 0.59 C1 0.49, 1.13 0.41, 1.25 0.34 C1.38 0.26, 1.51 0.2, 1.65 0.15 C1.78 0.1, 1.92 0.06, 2.07 0.04 C2.21 0.01, 2.36 0, 2.5 0 C2.65 0, 2.79 0.01, 2.94 0.04 C3.08 0.06, 3.22 0.1, 3.36 0.15 C3.49 0.2, 3.63 0.26, 3.75 0.34 C3.88 0.41, 4 0.49, 4.11 0.59 C4.22 0.68, 4.32 0.78, 4.42 0.89 C4.51 1, 4.59 1.13, 4.67 1.25 C4.74 1.38, 4.8 1.51, 4.85 1.65 C4.9 1.78, 4.94 1.92, 4.96 2.07 C4.99 2.21, 5 2.43, 5 2.5 C5.01 2.57, 5.01 2.43, 5 2.5" stroke="#000000" stroke-width="1" fill="none"></path></g><g stroke-linecap="round" transform="translate(551.2908069888567 339.41232434324684) rotate(0 2.5009765625 2.5009765625)"><path d="M5 2.5 C5 2.65, 4.99 2.79, 4.96 2.94 C4.94 3.08, 4.9 3.22, 4.85 3.36 C4.8 3.49, 4.74 3.63, 4.67 3.75 C4.59 3.88, 4.51 4, 4.42 4.11 C4.32 4.22, 4.22 4.32, 4.11 4.42 C4 4.51, 3.88 4.59, 3.75 4.67 C3.63 4.74, 3.49 4.8, 3.36 4.85 C3.22 4.9, 3.08 4.94, 2.94 4.96 C2.79 4.99, 2.65 5, 2.5 5 C2.36 5, 2.21 4.99, 2.07 4.96 C1.92 4.94, 1.78 4.9, 1.65 4.85 C1.51 4.8, 1.38 4.74, 1.25 4.67 C1.13 4.59, 1 4.51, 0.89 4.42 C0.78 4.32, 0.68 4.22, 0.59 4.11 C0.49 4, 0.41 3.88, 0.34 3.75 C0.26 3.63, 0.2 3.49, 0.15 3.36 C0.1 3.22, 0.06 3.08, 0.04 2.94 C0.01 2.79, 0 2.65, 0 2.5 C0 2.36, 0.01 2.21, 0.04 2.07 C0.06 1.92, 0.1 1.78, 0.15 1.65 C0.2 1.51, 0.26 1.38, 0.34 1.25 C0.41 1.13, 0.49 1, 0.59 0.89 C0.68 0.78, 0.78 0.68, 0.89 0.59 C1 0.49, 1.13 0.41, 1.25 0.34 C1.38 0.26, 1.51 0.2, 1.65 0.15 C1.78 0.1, 1.92 0.06, 2.07 0.04 C2.21 0.01, 2.36 0, 2.5 0 C2.65 0, 2.79 0.01, 2.94 0.04 C3.08 0.06, 3.22 0.1, 3.36 0.15 C3.49 0.2, 3.63 0.26, 3.75 0.34 C3.88 0.41, 4 0.49, 4.11 0.59 C4.22 0.68, 4.32 0.78, 4.42 0.89 C4.51 1, 4.59 1.13, 4.67 1.25 C4.74 1.38, 4.8 1.51, 4.85 1.65 C4.9 1.78, 4.94 1.92, 4.96 2.07 C4.99 2.21, 5 2.43, 5 2.5 C5.01 2.57, 5.01 2.43, 5 2.5" stroke="none" stroke-width="0" fill="#fab005"></path><path d="M5 2.5 C5 2.65, 4.99 2.79, 4.96 2.94 C4.94 3.08, 4.9 3.22, 4.85 3.36 C4.8 3.49, 4.74 3.63, 4.67 3.75 C4.59 3.88, 4.51 4, 4.42 4.11 C4.32 4.22, 4.22 4.32, 4.11 4.42 C4 4.51, 3.88 4.59, 3.75 4.67 C3.63 4.74, 3.49 4.8, 3.36 4.85 C3.22 4.9, 3.08 4.94, 2.94 4.96 C2.79 4.99, 2.65 5, 2.5 5 C2.36 5, 2.21 4.99, 2.07 4.96 C1.92 4.94, 1.78 4.9, 1.65 4.85 C1.51 4.8, 1.38 4.74, 1.25 4.67 C1.13 4.59, 1 4.51, 0.89 4.42 C0.78 4.32, 0.68 4.22, 0.59 4.11 C0.49 4, 0.41 3.88, 0.34 3.75 C0.26 3.63, 0.2 3.49, 0.15 3.36 C0.1 3.22, 0.06 3.08, 0.04 2.94 C0.01 2.79, 0 2.65, 0 2.5 C0 2.36, 0.01 2.21, 0.04 2.07 C0.06 1.92, 0.1 1.78, 0.15 1.65 C0.2 1.51, 0.26 1.38, 0.34 1.25 C0.41 1.13, 0.49 1, 0.59 0.89 C0.68 0.78, 0.78 0.68, 0.89 0.59 C1 0.49, 1.13 0.41, 1.25 0.34 C1.38 0.26, 1.51 0.2, 1.65 0.15 C1.78 0.1, 1.92 0.06, 2.07 0.04 C2.21 0.01, 2.36 0, 2.5 0 C2.65 0, 2.79 0.01, 2.94 0.04 C3.08 0.06, 3.22 0.1, 3.36 0.15 C3.49 0.2, 3.63 0.26, 3.75 0.34 C3.88 0.41, 4 0.49, 4.11 0.59 C4.22 0.68, 4.32 0.78, 4.42 0.89 C4.51 1, 4.59 1.13, 4.67 1.25 C4.74 1.38, 4.8 1.51, 4.85 1.65 C4.9 1.78, 4.94 1.92, 4.96 2.07 C4.99 2.21, 5 2.43, 5 2.5 C5.01 2.57, 5.01 2.43, 5 2.5" stroke="#000000" stroke-width="1" fill="none"></path></g><g stroke-linecap="round" transform="translate(562.0042234552029 339.863045497093) rotate(0 2.5009765625 2.5009765625)"><path d="M5 2.5 C5 2.65, 4.99 2.79, 4.96 2.94 C4.94 3.08, 4.9 3.22, 4.85 3.36 C4.8 3.49, 4.74 3.63, 4.67 3.75 C4.59 3.88, 4.51 4, 4.42 4.11 C4.32 4.22, 4.22 4.32, 4.11 4.42 C4 4.51, 3.88 4.59, 3.75 4.67 C3.63 4.74, 3.49 4.8, 3.36 4.85 C3.22 4.9, 3.08 4.94, 2.94 4.96 C2.79 4.99, 2.65 5, 2.5 5 C2.36 5, 2.21 4.99, 2.07 4.96 C1.92 4.94, 1.78 4.9, 1.65 4.85 C1.51 4.8, 1.38 4.74, 1.25 4.67 C1.13 4.59, 1 4.51, 0.89 4.42 C0.78 4.32, 0.68 4.22, 0.59 4.11 C0.49 4, 0.41 3.88, 0.34 3.75 C0.26 3.63, 0.2 3.49, 0.15 3.36 C0.1 3.22, 0.06 3.08, 0.04 2.94 C0.01 2.79, 0 2.65, 0 2.5 C0 2.36, 0.01 2.21, 0.04 2.07 C0.06 1.92, 0.1 1.78, 0.15 1.65 C0.2 1.51, 0.26 1.38, 0.34 1.25 C0.41 1.13, 0.49 1, 0.59 0.89 C0.68 0.78, 0.78 0.68, 0.89 0.59 C1 0.49, 1.13 0.41, 1.25 0.34 C1.38 0.26, 1.51 0.2, 1.65 0.15 C1.78 0.1, 1.92 0.06, 2.07 0.04 C2.21 0.01, 2.36 0, 2.5 0 C2.65 0, 2.79 0.01, 2.94 0.04 C3.08 0.06, 3.22 0.1, 3.36 0.15 C3.49 0.2, 3.63 0.26, 3.75 0.34 C3.88 0.41, 4 0.49, 4.11 0.59 C4.22 0.68, 4.32 0.78, 4.42 0.89 C4.51 1, 4.59 1.13, 4.67 1.25 C4.74 1.38, 4.8 1.51, 4.85 1.65 C4.9 1.78, 4.94 1.92, 4.96 2.07 C4.99 2.21, 5 2.43, 5 2.5 C5.01 2.57, 5.01 2.43, 5 2.5" stroke="none" stroke-width="0" fill="#40c057"></path><path d="M5 2.5 C5 2.65, 4.99 2.79, 4.96 2.94 C4.94 3.08, 4.9 3.22, 4.85 3.36 C4.8 3.49, 4.74 3.63, 4.67 3.75 C4.59 3.88, 4.51 4, 4.42 4.11 C4.32 4.22, 4.22 4.32, 4.11 4.42 C4 4.51, 3.88 4.59, 3.75 4.67 C3.63 4.74, 3.49 4.8, 3.36 4.85 C3.22 4.9, 3.08 4.94, 2.94 4.96 C2.79 4.99, 2.65 5, 2.5 5 C2.36 5, 2.21 4.99, 2.07 4.96 C1.92 4.94, 1.78 4.9, 1.65 4.85 C1.51 4.8, 1.38 4.74, 1.25 4.67 C1.13 4.59, 1 4.51, 0.89 4.42 C0.78 4.32, 0.68 4.22, 0.59 4.11 C0.49 4, 0.41 3.88, 0.34 3.75 C0.26 3.63, 0.2 3.49, 0.15 3.36 C0.1 3.22, 0.06 3.08, 0.04 2.94 C0.01 2.79, 0 2.65, 0 2.5 C0 2.36, 0.01 2.21, 0.04 2.07 C0.06 1.92, 0.1 1.78, 0.15 1.65 C0.2 1.51, 0.26 1.38, 0.34 1.25 C0.41 1.13, 0.49 1, 0.59 0.89 C0.68 0.78, 0.78 0.68, 0.89 0.59 C1 0.49, 1.13 0.41, 1.25 0.34 C1.38 0.26, 1.51 0.2, 1.65 0.15 C1.78 0.1, 1.92 0.06, 2.07 0.04 C2.21 0.01, 2.36 0, 2.5 0 C2.65 0, 2.79 0.01, 2.94 0.04 C3.08 0.06, 3.22 0.1, 3.36 0.15 C3.49 0.2, 3.63 0.26, 3.75 0.34 C3.88 0.41, 4 0.49, 4.11 0.59 C4.22 0.68, 4.32 0.78, 4.42 0.89 C4.51 1, 4.59 1.13, 4.67 1.25 C4.74 1.38, 4.8 1.51, 4.85 1.65 C4.9 1.78, 4.94 1.92, 4.96 2.07 C4.99 2.21, 5 2.43, 5 2.5 C5.01 2.57, 5.01 2.43, 5 2.5" stroke="#000000" stroke-width="1" fill="none"></path></g><g stroke-opacity="0.9" fill-opacity="0.9" stroke-linecap="round" transform="translate(578.0312844448301 355.91541437510887) rotate(0 21.360101269687902 21.360101269687902)"><path d="M15.99 0.74 C20.01 -0.45, 26.15 0.67, 30.25 2.62 C34.35 4.57, 38.69 8.37, 40.6 12.46 C42.5 16.54, 42.89 22.62, 41.67 27.12 C40.45 31.61, 37.1 36.78, 33.27 39.41 C29.45 42.03, 23.33 43.37, 18.73 42.87 C14.14 42.37, 8.78 39.78, 5.7 36.43 C2.63 33.07, 0.6 27.33, 0.26 22.75 C-0.09 18.16, 0.87 12.55, 3.64 8.91 C6.4 5.28, 14.5 2.23, 16.83 0.94 C19.17 -0.36, 17.59 0.92, 17.66 1.14 M22.49 -0.42 C26.99 -0.43, 33.39 3.05, 36.62 6.31 C39.85 9.57, 41.59 14.57, 41.88 19.13 C42.17 23.7, 40.86 29.91, 38.34 33.71 C35.83 37.5, 31.1 40.66, 26.8 41.9 C22.5 43.14, 16.65 43.17, 12.56 41.16 C8.46 39.15, 4.22 34, 2.23 29.86 C0.25 25.72, -0.55 20.62, 0.65 16.32 C1.86 12.02, 5.84 6.88, 9.46 4.07 C13.09 1.25, 20.04 -0.1, 22.42 -0.58 C24.79 -1.05, 23.6 0.75, 23.73 1.23" stroke="none" stroke-width="0" fill="#04aaf7"></path><path d="M22.85 -0.27 C27.15 -0.24, 32.92 2.62, 36.18 5.95 C39.44 9.28, 41.86 15.15, 42.39 19.72 C42.93 24.28, 42 29.56, 39.41 33.34 C36.81 37.12, 31.35 41.22, 26.85 42.39 C22.36 43.55, 16.58 42.31, 12.44 40.33 C8.29 38.34, 3.99 34.48, 2 30.47 C0 26.46, -0.75 20.66, 0.48 16.28 C1.71 11.91, 5.42 6.9, 9.35 4.21 C13.28 1.51, 21.54 0.66, 24.05 0.1 C26.56 -0.47, 24.52 0.47, 24.41 0.84 M23.19 -0.09 C27.64 -0.06, 33.78 2.41, 36.93 5.75 C40.08 9.09, 41.72 15.29, 42.12 19.94 C42.52 24.6, 41.92 29.97, 39.33 33.69 C36.74 37.41, 31.12 41.07, 26.59 42.26 C22.05 43.44, 16.19 42.81, 12.12 40.8 C8.04 38.79, 4.02 34.41, 2.11 30.21 C0.2 26, -0.64 20.04, 0.65 15.57 C1.93 11.11, 5.99 5.97, 9.81 3.43 C13.62 0.88, 21.32 0.73, 23.52 0.3 C25.73 -0.13, 22.98 0.59, 23.02 0.85" stroke="#000000" stroke-width="1" fill="none"></path></g><g stroke-linecap="round"><g transform="translate(605.1094485068056 372.1397664395663) rotate(0 -3.3114080732229922 5.948935990064456)" fill-rule="evenodd"><path d="M0 0 C-0.31 -0.07, -0.57 0.63, -1.83 -0.41 C-3.09 -1.46, -5.98 -5.62, -7.57 -6.27 C-9.16 -6.93, -10.52 -5.79, -11.36 -4.35 C-12.2 -2.91, -12.63 0.53, -12.61 2.37 C-12.6 4.22, -10.47 5.65, -11.27 6.74 C-12.07 7.83, -16.44 7.74, -17.42 8.89 C-18.41 10.04, -18.04 12.9, -17.2 13.64 C-16.36 14.39, -13.8 14.04, -12.38 13.35 C-10.96 12.66, -10.16 8.72, -8.7 9.48 C-7.24 10.23, -5 16.42, -3.62 17.87 C-2.24 19.32, -0.39 20.35, -0.42 18.17 C-0.44 15.99, -4.08 7.1, -3.78 4.8 C-3.48 2.5, 0.23 4.17, 1.39 4.35 C2.54 4.53, 1.85 5.61, 3.16 5.87 C4.47 6.12, 7.96 6.74, 9.24 5.87 C10.51 5, 11.64 1.43, 10.8 0.63 C9.97 -0.16, 5.11 2.18, 4.22 1.11 C3.34 0.04, 5.78 -4.68, 5.49 -5.76 C5.19 -6.84, 3.43 -6.15, 2.47 -5.35 C1.52 -4.54, 0.17 -1.81, -0.24 -0.92 C-0.65 -0.03, -0.04 -0.15, 0 0" stroke="none" stroke-width="0" fill="#40c057" fill-rule="evenodd"></path><path d="M0 0 C-0.31 -0.07, -0.57 0.63, -1.83 -0.41 C-3.09 -1.46, -5.98 -5.62, -7.57 -6.27 C-9.16 -6.93, -10.52 -5.79, -11.36 -4.35 C-12.2 -2.91, -12.63 0.53, -12.61 2.37 C-12.6 4.22, -10.47 5.65, -11.27 6.74 C-12.07 7.83, -16.44 7.74, -17.42 8.89 C-18.41 10.04, -18.04 12.9, -17.2 13.64 C-16.36 14.39, -13.8 14.04, -12.38 13.35 C-10.96 12.66, -10.16 8.72, -8.7 9.48 C-7.24 10.23, -5 16.42, -3.62 17.87 C-2.24 19.32, -0.39 20.35, -0.42 18.17 C-0.44 15.99, -4.08 7.1, -3.78 4.8 C-3.48 2.5, 0.23 4.17, 1.39 4.35 C2.54 4.53, 1.85 5.61, 3.16 5.87 C4.47 6.12, 7.96 6.74, 9.24 5.87 C10.51 5, 11.64 1.43, 10.8 0.63 C9.97 -0.16, 5.11 2.18, 4.22 1.11 C3.34 0.04, 5.78 -4.68, 5.49 -5.76 C5.19 -6.84, 3.43 -6.15, 2.47 -5.35 C1.52 -4.54, 0.17 -1.81, -0.24 -0.92 C-0.65 -0.03, -0.04 -0.15, 0 0 M0 0 C-0.31 -0.07, -0.57 0.63, -1.83 -0.41 C-3.09 -1.46, -5.98 -5.62, -7.57 -6.27 C-9.16 -6.93, -10.52 -5.79, -11.36 -4.35 C-12.2 -2.91, -12.63 0.53, -12.61 2.37 C-12.6 4.22, -10.47 5.65, -11.27 6.74 C-12.07 7.83, -16.44 7.74, -17.42 8.89 C-18.41 10.04, -18.04 12.9, -17.2 13.64 C-16.36 14.39, -13.8 14.04, -12.38 13.35 C-10.96 12.66, -10.16 8.72, -8.7 9.48 C-7.24 10.23, -5 16.42, -3.62 17.87 C-2.24 19.32, -0.39 20.35, -0.42 18.17 C-0.44 15.99, -4.08 7.1, -3.78 4.8 C-3.48 2.5, 0.23 4.17, 1.39 4.35 C2.54 4.53, 1.85 5.61, 3.16 5.87 C4.47 6.12, 7.96 6.74, 9.24 5.87 C10.51 5, 11.64 1.43, 10.8 0.63 C9.97 -0.16, 5.11 2.18, 4.22 1.11 C3.34 0.04, 5.78 -4.68, 5.49 -5.76 C5.19 -6.84, 3.43 -6.15, 2.47 -5.35 C1.52 -4.54, 0.17 -1.81, -0.24 -0.92 C-0.65 -0.03, -0.04 -0.15, 0 0" stroke="#087f5b" stroke-width="1" fill="none"></path></g></g><mask></mask><g stroke-linecap="round"><g stroke-opacity="0.9" fill-opacity="0.9" transform="translate(579.0903469188577 376.87828793828976) rotate(0 21.047557886136133 0)"><path d="M0.1 -0.31 C7.02 -0.38, 34.76 -0.25, 41.72 -0.24 M-0.51 0.71 C6.57 0.71, 35.78 0.42, 42.76 0.33" stroke="#000000" stroke-width="1" fill="none"></path></g></g><mask></mask><g stroke-linecap="round"><g stroke-opacity="0.9" fill-opacity="0.9" transform="translate(584.185675948632 361.4437590113239) rotate(0 14.659303301924297 2.593116626464507)"><path d="M0 0 C0.13 0.38, 0.09 1.58, 0.77 2.28 C1.46 2.97, 2.81 3.68, 4.1 4.19 C5.4 4.7, 6.64 5.13, 8.54 5.34 C10.43 5.55, 12.97 5.55, 15.48 5.45 C17.99 5.34, 21.44 5.28, 23.58 4.71 C25.72 4.14, 27.36 2.86, 28.32 2.03 C29.27 1.2, 29.15 0.12, 29.32 -0.26 M0 0 C0.13 0.38, 0.09 1.58, 0.77 2.28 C1.46 2.97, 2.81 3.68, 4.1 4.19 C5.4 4.7, 6.64 5.13, 8.54 5.34 C10.43 5.55, 12.97 5.55, 15.48 5.45 C17.99 5.34, 21.44 5.28, 23.58 4.71 C25.72 4.14, 27.36 2.86, 28.32 2.03 C29.27 1.2, 29.15 0.12, 29.32 -0.26" stroke="#000000" stroke-width="1" fill="none"></path></g></g><mask></mask><g stroke-opacity="0.9" fill-opacity="0.9" stroke-linecap="round" transform="translate(592.2595918725515 354.5328847455162) rotate(0 7.764217176558077 22.41115194065469)"><path d="M8.83 0.68 C10.32 1.05, 12.52 3.67, 13.63 7.21 C14.74 10.75, 15.49 17, 15.48 21.93 C15.48 26.87, 14.58 33.02, 13.59 36.81 C12.61 40.6, 11.13 43.82, 9.59 44.68 C8.05 45.55, 5.84 44.34, 4.36 42.02 C2.88 39.7, 1.37 35.2, 0.7 30.74 C0.04 26.29, -0.18 19.89, 0.36 15.29 C0.9 10.7, 2.45 5.67, 3.92 3.17 C5.39 0.67, 8.29 0.62, 9.16 0.29 C10.04 -0.04, 9.28 0.86, 9.19 1.18 M8.49 0.42 C9.96 0.72, 12.11 3.82, 13.3 7.28 C14.5 10.74, 15.56 16.44, 15.66 21.18 C15.75 25.93, 14.77 31.97, 13.85 35.76 C12.93 39.54, 11.7 42.73, 10.13 43.86 C8.57 45, 6.08 44.64, 4.45 42.57 C2.83 40.5, 0.95 35.97, 0.38 31.45 C-0.19 26.94, 0.57 20.13, 1.05 15.47 C1.53 10.81, 2.1 5.95, 3.26 3.49 C4.42 1.02, 7.16 1.21, 8 0.68 C8.83 0.16, 8.16 0.17, 8.29 0.34" stroke="#000000" stroke-width="1" fill="none"></path></g><g stroke-linecap="round"><g stroke-opacity="0.9" fill-opacity="0.9" transform="translate(585.7016274582579 393.1808510697647) rotate(0 14.659303301924297 -2.6770512214206974)"><path d="M0 0 C0.68 -0.72, 2.68 -3.4, 4.1 -4.32 C5.53 -5.24, 6.64 -5.3, 8.54 -5.52 C10.43 -5.73, 12.97 -5.73, 15.48 -5.63 C17.99 -5.52, 21.44 -5.45, 23.58 -4.86 C25.72 -4.28, 27.36 -2.95, 28.32 -2.1 C29.27 -1.24, 29.15 -0.12, 29.32 0.27 M0 0 C0.68 -0.72, 2.68 -3.4, 4.1 -4.32 C5.53 -5.24, 6.64 -5.3, 8.54 -5.52 C10.43 -5.73, 12.97 -5.73, 15.48 -5.63 C17.99 -5.52, 21.44 -5.45, 23.58 -4.86 C25.72 -4.28, 27.36 -2.95, 28.32 -2.1 C29.27 -1.24, 29.15 -0.12, 29.32 0.27" stroke="#000000" stroke-width="1" fill="none"></path></g></g><mask></mask><g stroke-linecap="round" transform="translate(99.17743640227832 576.8849437716281) rotate(0 50 80)"><path d="M6 6.54 C6 6.54, 6 6.54, 6 6.54 M6 6.54 C6 6.54, 6 6.54, 6 6.54 M1.8 17.47 C5.44 12.99, 8.45 9.84, 15.58 1.62 M1.8 17.47 C5.31 13.04, 9.02 8.8, 15.58 1.62 M0.88 24.62 C6.53 18.04, 8.4 12.52, 21.88 0.47 M0.88 24.62 C5.45 19.96, 9.8 14.63, 21.88 0.47 M1.28 30.26 C12.19 19.93, 21.72 7.58, 26.86 0.83 M1.28 30.26 C6.59 23.26, 11.55 18.09, 26.86 0.83 M1.02 36.66 C7.2 26.3, 16.54 21.68, 32.51 0.43 M1.02 36.66 C10 27.42, 19.36 15.8, 32.51 0.43 M0.75 43.06 C13.64 30.3, 21.46 17, 37.49 0.79 M0.75 43.06 C9.53 34.02, 17.43 23.95, 37.49 0.79 M1.15 48.7 C14.83 30.66, 30.86 12.78, 43.14 0.4 M1.15 48.7 C13.93 34.85, 27.17 19.86, 43.14 0.4 M0.89 55.1 C16.42 35.38, 35.35 16.12, 48.12 0.76 M0.89 55.1 C18.09 35.63, 35.25 14.87, 48.12 0.76 M1.28 60.74 C15.93 42.86, 29.76 29.07, 53.11 1.12 M1.28 60.74 C18.28 41.01, 33.01 22.03, 53.11 1.12 M1.02 67.14 C14.96 51.64, 29.04 33.41, 58.75 0.72 M1.02 67.14 C22.86 42.68, 44.06 15.78, 58.75 0.72 M0.76 73.54 C15.54 59.22, 26.49 42.5, 63.74 1.08 M0.76 73.54 C19.13 53.15, 37.83 30.32, 63.74 1.08 M1.15 79.18 C19.13 58.14, 38.63 36.46, 69.38 0.69 M1.15 79.18 C19.78 57.91, 40.56 34.5, 69.38 0.69 M0.89 85.58 C25.62 56.81, 46.83 32.05, 74.37 1.05 M0.89 85.58 C29.49 51.86, 58.05 19.98, 74.37 1.05 M0.63 91.97 C27.34 62.36, 54.84 30.6, 80.01 0.65 M0.63 91.97 C19.8 68.92, 37.87 46.45, 80.01 0.65 M1.03 97.62 C26.68 70.87, 49.1 39.33, 84.35 1.77 M1.03 97.62 C19.68 76.17, 39.03 54.37, 84.35 1.77 M0.76 104.02 C23.59 75.65, 50.72 44.95, 88.68 2.88 M0.76 104.02 C22.09 78.88, 42.33 54.96, 88.68 2.88 M0.5 110.41 C33.72 74.51, 64.3 40.58, 92.35 4.75 M0.5 110.41 C23.18 85.15, 46.29 59.03, 92.35 4.75 M0.9 116.06 C33.61 75.33, 67.32 35.92, 94.71 8.13 M0.9 116.06 C22.45 90.69, 43.4 65.3, 94.71 8.13 M0.64 122.45 C23.24 98.25, 42.79 72.84, 97.08 11.51 M0.64 122.45 C37.02 81.32, 71.72 41.57, 97.08 11.51 M1.03 128.1 C21.21 100.84, 42.32 79.08, 98.78 15.65 M1.03 128.1 C39.17 84.56, 76.81 42.93, 98.78 15.65 M0.11 135.25 C20.56 112.54, 38.93 87.06, 99.83 20.53 M0.11 135.25 C30.04 99.33, 61.75 64.48, 99.83 20.53 M1.16 140.14 C28.45 110.75, 53.31 81.14, 100.88 25.42 M1.16 140.14 C23.37 113.51, 46.46 86.45, 100.88 25.42 M1.56 145.78 C35.22 106.91, 67.77 67.78, 100.62 31.82 M1.56 145.78 C28.88 113.19, 55.79 83.53, 100.62 31.82 M3.92 149.16 C29.96 118.48, 56.57 85.81, 100.36 38.22 M3.92 149.16 C38.13 111.77, 70.55 74.15, 100.36 38.22 M6.28 152.54 C40.42 115.01, 72.69 75.91, 100.76 43.86 M6.28 152.54 C32.86 124.21, 56.91 95.57, 100.76 43.86 M8.65 155.92 C31.48 130.26, 54.96 103.93, 100.5 50.26 M8.65 155.92 C28.53 134.15, 47.73 111.65, 100.5 50.26 M12.32 157.79 C45.61 124.86, 74 88.07, 100.89 55.9 M12.32 157.79 C46.47 118.44, 79.15 81.22, 100.89 55.9 M16.65 158.9 C47.89 124.67, 77.06 87.19, 100.63 62.3 M16.65 158.9 C34.08 139.49, 50.63 121.02, 100.63 62.3 M20.98 160.02 C46.75 133.09, 70.66 103.28, 100.37 68.7 M20.98 160.02 C43.46 133.5, 67.87 108.17, 100.37 68.7 M25.97 160.38 C53.23 129.77, 75.35 102.1, 100.76 74.34 M25.97 160.38 C40.7 143.3, 56.23 125.59, 100.76 74.34 M31.61 159.98 C46.61 142.03, 62.16 124.42, 100.5 80.74 M31.61 159.98 C58.14 128.64, 83.51 98.07, 100.5 80.74 M36.6 160.34 C55.69 136.75, 75.17 113.86, 100.24 87.14 M36.6 160.34 C59.58 134.59, 80.5 107.75, 100.24 87.14 M42.24 159.95 C63.73 136.03, 82.11 111.49, 100.63 92.78 M42.24 159.95 C55.97 144.66, 68.58 130.61, 100.63 92.78 M47.23 160.31 C67.88 135.25, 86.73 111, 100.37 99.18 M47.23 160.31 C65.09 140.55, 82.77 120.29, 100.37 99.18 M52.87 159.91 C68.4 142.29, 84.02 125.25, 100.77 104.82 M52.87 159.91 C65.27 144.73, 78.3 128.93, 100.77 104.82 M57.86 160.27 C68.73 147.32, 83.16 132.91, 100.5 111.22 M57.86 160.27 C68.31 149.31, 78.25 137, 100.5 111.22 M62.85 160.63 C70.9 149.65, 83.55 141.01, 100.24 117.62 M62.85 160.63 C77.37 144, 92.31 127.07, 100.24 117.62 M68.49 160.24 C77.28 150.52, 83.83 139.98, 100.64 123.26 M68.49 160.24 C80.45 146.58, 91.52 134.08, 100.64 123.26 M73.48 160.6 C81.73 154.29, 87.97 142.84, 100.38 129.66 M73.48 160.6 C81.71 150.42, 91.11 140.6, 100.38 129.66 M79.78 159.45 C87.56 151.97, 93.44 142.03, 100.12 136.05 M79.78 159.45 C87.81 149.8, 96.12 141.08, 100.12 136.05 M86.08 158.3 C88.79 154.69, 95.49 148.73, 99.2 143.21 M86.08 158.3 C91.56 153.37, 95.68 147.02, 99.2 143.21" stroke="#ced4da" stroke-width="0.5" fill="none"></path><path d="M25 0 C42.57 1.87, 61.22 -1.52, 75 0 M25 0 C40.32 0.86, 54.74 0.89, 75 0 M75 0 C91.53 0.71, 100.87 8.12, 100 25 M75 0 C92.08 0.83, 99.66 8.43, 100 25 M100 25 C98.26 55.16, 100.74 89.5, 100 135 M100 25 C99.45 58.46, 99.84 91.48, 100 135 M100 135 C99.73 151.16, 93.38 158.94, 75 160 M100 135 C100.71 152.33, 90.96 161.04, 75 160 M75 160 C55.02 157.85, 36.91 158.68, 25 160 M75 160 C62.79 159, 48.32 159.09, 25 160 M25 160 C7.85 159.84, 1.39 150.03, 0 135 M25 160 C9.56 158.63, 1.02 152.6, 0 135 M0 135 C0.91 106.37, 1.24 75.57, 0 25 M0 135 C0.01 103.09, 0.03 68.89, 0 25 M0 25 C0.77 8.84, 6.35 -0.46, 25 0 M0 25 C-1.91 9.12, 7.48 -0.12, 25 0" stroke="#000000" stroke-width="1" fill="none"></path></g><g stroke-linecap="round" transform="translate(109.17743640227832 586.8849437716281) rotate(0 40 60)"><path d="M-0.48 -0.16 L81.39 -1.63 L81.07 118.81 L0.88 120.81" stroke="none" stroke-width="0" fill="#ffffff"></path><path d="M0 0 C20.93 -2.39, 41.5 -0.65, 80 0 M0 0 C20.99 0.16, 40.75 -0.15, 80 0 M80 0 C80.6 40.91, 79.96 82.14, 80 120 M80 0 C79.96 33.68, 81.35 66.39, 80 120 M80 120 C58.81 120.2, 36.72 119.57, 0 120 M80 120 C58.34 119.86, 35.75 120.03, 0 120 M0 120 C0.27 70.71, 1.88 24.2, 0 0 M0 120 C0.68 87.93, -0.65 56.5, 0 0" stroke="#000000" stroke-width="1" fill="none"></path></g><g stroke-linecap="round" transform="translate(139.17743640227832 716.8849437716281) rotate(0 10 10)"><path d="M4.16 2.29 C4.16 2.29, 4.16 2.29, 4.16 2.29 M4.16 2.29 C4.16 2.29, 4.16 2.29, 4.16 2.29 M1.28 11.71 C2.96 9.48, 5.86 5.89, 11.12 0.39 M1.28 11.71 C3.91 8.54, 6.8 5.6, 11.12 0.39 M2.33 16.6 C6.76 12.67, 10.48 6.66, 14.79 2.26 M2.33 16.6 C5.14 13.51, 7.57 10.05, 14.79 2.26 M6 18.47 C9.06 14.64, 12.72 10.16, 17.81 4.88 M6 18.47 C9.57 14.26, 13.23 9.53, 17.81 4.88 M9.68 20.34 C12.96 15.34, 16.65 10.9, 20.17 8.26 M9.68 20.34 C12.04 17.77, 14.11 15.71, 20.17 8.26 M1.27 15.31 C1.27 15.31, 1.27 15.31, 1.27 15.31 M1.27 15.31 C1.27 15.31, 1.27 15.31, 1.27 15.31 M11.44 18.85 C7.72 16.61, 6.14 13.54, 0.12 9.01 M11.44 18.85 C8.65 16.33, 5.01 13.44, 0.12 9.01 M15.57 17.14 C12.17 13.6, 8.58 10.82, 1.99 5.34 M15.57 17.14 C10.94 12.88, 5.96 8.97, 1.99 5.34 M18.95 14.78 C13.52 10.29, 8.27 5.99, 4.61 2.32 M18.95 14.78 C16.03 12.49, 12.58 9.67, 4.61 2.32 M20.07 10.45 C17.02 7.98, 14.12 5.75, 8.75 0.61 M20.07 10.45 C17.34 7.59, 14 5.04, 8.75 0.61" stroke="#868e96" stroke-width="0.5" fill="none"></path><path d="M10.33 0.29 C12.46 0.1, 15.16 0.95, 16.78 2.32 C18.39 3.68, 19.72 6.37, 20.03 8.5 C20.33 10.63, 19.67 13.3, 18.6 15.11 C17.52 16.91, 15.59 18.63, 13.58 19.33 C11.58 20.03, 8.65 20, 6.58 19.33 C4.52 18.65, 2.35 17.17, 1.21 15.26 C0.08 13.36, -0.65 9.99, -0.21 7.89 C0.22 5.79, 2.08 4.01, 3.84 2.67 C5.59 1.33, 9.16 0.27, 10.3 -0.15 C11.45 -0.58, 10.71 -0.1, 10.71 0.11 M10.26 -0.39 C12.34 -0.53, 14.81 0.88, 16.36 2.31 C17.91 3.75, 19.01 6.22, 19.54 8.23 C20.08 10.23, 20.56 12.51, 19.56 14.33 C18.55 16.15, 15.71 18.21, 13.49 19.16 C11.26 20.11, 8.27 20.71, 6.21 20.03 C4.15 19.34, 2.11 17.06, 1.12 15.05 C0.12 13.04, -0.23 10.1, 0.25 7.96 C0.72 5.81, 2.47 3.57, 3.98 2.19 C5.49 0.8, 8.4 0.01, 9.31 -0.33 C10.22 -0.67, 9.3 0.03, 9.44 0.15" stroke="#000000" stroke-width="1" fill="none"></path></g><g mask="url(#mask-6OAKWkk6gWpcVptAxvJNj)" stroke-linecap="round"><g transform="translate(215.3098140564623 631.6251903146676) rotate(0 556.1044878174808 -1.4127663593017132)"><path d="M0.01 -0.54 C185.7 -0.87, 927.61 -1.82, 1113.09 -2.07 M-1.45 1.79 C184.25 1.13, 926.95 -2.84, 1112.61 -3.79" stroke="#f08c00" stroke-width="2" fill="none"></path></g><g transform="translate(215.3098140564623 631.6251903146676) rotate(0 556.1044878174808 -1.4127663593017132)"><path d="M1089.16 4.88 C1093.28 4.5, 1100.46 2.34, 1112.61 -3.79 M1089.16 4.88 C1098.2 1.51, 1106.56 -1.21, 1112.61 -3.79" stroke="#f08c00" stroke-width="2" fill="none"></path></g><g transform="translate(215.3098140564623 631.6251903146676) rotate(0 556.1044878174808 -1.4127663593017132)"><path d="M1089.07 -12.22 C1093.2 -8.95, 1100.39 -7.45, 1112.61 -3.79 M1089.07 -12.22 C1098.13 -9.32, 1106.52 -5.76, 1112.61 -3.79" stroke="#f08c00" stroke-width="2" fill="none"></path></g></g><mask id="mask-6OAKWkk6gWpcVptAxvJNj"><rect x="0" y="0" fill="#fff" width="1427.518789691424" height="734.4507230332711"></rect><rect x="692.9523344056818" y="607.7124239553659" fill="#000" width="156.92393493652344" height="45" opacity="1"></rect></mask><g transform="translate(692.9523344056815 607.7124239553659) rotate(0 78.18042918211768 22.91304716432478)"><text x="78.46196746826172" y="0" font-family="Virgil, Segoe UI Emoji" font-size="36px" fill="#f08c00" text-anchor="middle" style="white-space: pre;" direction="ltr" dominant-baseline="text-before-edge">/callback</text></g><g mask="url(#mask-rA_DxREI_V5uEJDFUyK_R)" stroke-linecap="round"><g transform="translate(528.928917141935 380.5767979729876) rotate(0 -145.50875145948885 94.8582310018046)"><path d="M0.76 0.7 C-47.52 32.16, -241.66 158.04, -290.21 189.63 M-0.3 0.02 C-48.62 31.6, -242.27 159.77, -290.74 191.13" stroke="#f08c00" stroke-width="2" fill="none"></path></g><g transform="translate(528.928917141935 380.5767979729876) rotate(0 -145.50875145948885 94.8582310018046)"><path d="M-275.78 171.1 C-278.28 177.64, -283.4 182.12, -290.74 191.13 M-275.78 171.1 C-280.58 177.85, -286.03 184.75, -290.74 191.13" stroke="#f08c00" stroke-width="2" fill="none"></path></g><g transform="translate(528.928917141935 380.5767979729876) rotate(0 -145.50875145948885 94.8582310018046)"><path d="M-266.4 185.4 C-271.4 188.35, -278.92 189.18, -290.74 191.13 M-266.4 185.4 C-274.4 187.26, -283.08 189.25, -290.74 191.13" stroke="#f08c00" stroke-width="2" fill="none"></path></g></g><mask id="mask-rA_DxREI_V5uEJDFUyK_R"><rect x="0" y="0" fill="#fff" width="919.9464200609127" height="670.2932599765968"></rect><rect x="240.44622769416492" y="452.9350289747922" fill="#000" width="285.9478759765625" height="45" opacity="1"></rect></mask><g transform="translate(240.44622769416492 452.9350289747922) rotate(0 143.49142208585522 23.21576058570281)"><text x="142.97393798828125" y="0" font-family="Virgil, Segoe UI Emoji" font-size="36px" fill="#f08c00" text-anchor="middle" style="white-space: pre;" direction="ltr" dominant-baseline="text-before-edge">expose QR Code</text></g><g transform="translate(10 762.1559979650087) rotate(0 159.20993041992188 22.5)"><text x="0" y="0" font-family="Virgil, Segoe UI Emoji" font-size="36px" fill="#f08c00" text-anchor="start" style="white-space: pre;" direction="ltr" dominant-baseline="text-before-edge">Polygon ID Wallet</text></g><g stroke-linecap="round" transform="translate(534.8198698522353 779.1690199706254) rotate(0 63.9419178660695 38.26851694988886)"><path d="M0 0 C37.26 -0.19, 75.67 -0.85, 127.88 0 M0 0 C39.45 -0.44, 77.09 0.8, 127.88 0 M127.88 0 C128.56 27.78, 128.2 56.76, 127.88 76.54 M127.88 0 C128.64 21.25, 128.09 43.85, 127.88 76.54 M127.88 76.54 C92.54 76.97, 58.7 75.79, 0 76.54 M127.88 76.54 C81.08 75.14, 34.78 75.52, 0 76.54 M0 76.54 C0.18 58.08, -1.29 37.92, 0 0 M0 76.54 C-0.57 57.27, -0.14 39.73, 0 0" stroke="#000000" stroke-width="1" fill="none"></path></g><g stroke-linecap="round"><g transform="translate(533.7442721013401 789.8855543628697) rotate(0 64.42096614922218 0)"><path d="M0.22 0.43 C21.58 0.46, 107.25 0.17, 128.67 0.05 M-1.13 -0.38 C20.01 -0.13, 106.13 1.4, 127.62 1.61" stroke="#000000" stroke-width="1" fill="none"></path></g></g><mask></mask><g stroke-linecap="round" transform="translate(539.3079053211902 783.4405897706342) rotate(0 2.5009765625 2.5009765625)"><path d="M5 2.5 C5 2.65, 4.99 2.79, 4.96 2.94 C4.94 3.08, 4.9 3.22, 4.85 3.36 C4.8 3.49, 4.74 3.63, 4.67 3.75 C4.59 3.88, 4.51 4, 4.42 4.11 C4.32 4.22, 4.22 4.32, 4.11 4.42 C4 4.51, 3.88 4.59, 3.75 4.67 C3.63 4.74, 3.49 4.8, 3.36 4.85 C3.22 4.9, 3.08 4.94, 2.94 4.96 C2.79 4.99, 2.65 5, 2.5 5 C2.36 5, 2.21 4.99, 2.07 4.96 C1.92 4.94, 1.78 4.9, 1.65 4.85 C1.51 4.8, 1.38 4.74, 1.25 4.67 C1.13 4.59, 1 4.51, 0.89 4.42 C0.78 4.32, 0.68 4.22, 0.59 4.11 C0.49 4, 0.41 3.88, 0.34 3.75 C0.26 3.63, 0.2 3.49, 0.15 3.36 C0.1 3.22, 0.06 3.08, 0.04 2.94 C0.01 2.79, 0 2.65, 0 2.5 C0 2.36, 0.01 2.21, 0.04 2.07 C0.06 1.92, 0.1 1.78, 0.15 1.65 C0.2 1.51, 0.26 1.38, 0.34 1.25 C0.41 1.13, 0.49 1, 0.59 0.89 C0.68 0.78, 0.78 0.68, 0.89 0.59 C1 0.49, 1.13 0.41, 1.25 0.34 C1.38 0.26, 1.51 0.2, 1.65 0.15 C1.78 0.1, 1.92 0.06, 2.07 0.04 C2.21 0.01, 2.36 0, 2.5 0 C2.65 0, 2.79 0.01, 2.94 0.04 C3.08 0.06, 3.22 0.1, 3.36 0.15 C3.49 0.2, 3.63 0.26, 3.75 0.34 C3.88 0.41, 4 0.49, 4.11 0.59 C4.22 0.68, 4.32 0.78, 4.42 0.89 C4.51 1, 4.59 1.13, 4.67 1.25 C4.74 1.38, 4.8 1.51, 4.85 1.65 C4.9 1.78, 4.94 1.92, 4.96 2.07 C4.99 2.21, 5 2.43, 5 2.5 C5.01 2.57, 5.01 2.43, 5 2.5" stroke="none" stroke-width="0" fill="#fa5252"></path><path d="M5 2.5 C5 2.65, 4.99 2.79, 4.96 2.94 C4.94 3.08, 4.9 3.22, 4.85 3.36 C4.8 3.49, 4.74 3.63, 4.67 3.75 C4.59 3.88, 4.51 4, 4.42 4.11 C4.32 4.22, 4.22 4.32, 4.11 4.42 C4 4.51, 3.88 4.59, 3.75 4.67 C3.63 4.74, 3.49 4.8, 3.36 4.85 C3.22 4.9, 3.08 4.94, 2.94 4.96 C2.79 4.99, 2.65 5, 2.5 5 C2.36 5, 2.21 4.99, 2.07 4.96 C1.92 4.94, 1.78 4.9, 1.65 4.85 C1.51 4.8, 1.38 4.74, 1.25 4.67 C1.13 4.59, 1 4.51, 0.89 4.42 C0.78 4.32, 0.68 4.22, 0.59 4.11 C0.49 4, 0.41 3.88, 0.34 3.75 C0.26 3.63, 0.2 3.49, 0.15 3.36 C0.1 3.22, 0.06 3.08, 0.04 2.94 C0.01 2.79, 0 2.65, 0 2.5 C0 2.36, 0.01 2.21, 0.04 2.07 C0.06 1.92, 0.1 1.78, 0.15 1.65 C0.2 1.51, 0.26 1.38, 0.34 1.25 C0.41 1.13, 0.49 1, 0.59 0.89 C0.68 0.78, 0.78 0.68, 0.89 0.59 C1 0.49, 1.13 0.41, 1.25 0.34 C1.38 0.26, 1.51 0.2, 1.65 0.15 C1.78 0.1, 1.92 0.06, 2.07 0.04 C2.21 0.01, 2.36 0, 2.5 0 C2.65 0, 2.79 0.01, 2.94 0.04 C3.08 0.06, 3.22 0.1, 3.36 0.15 C3.49 0.2, 3.63 0.26, 3.75 0.34 C3.88 0.41, 4 0.49, 4.11 0.59 C4.22 0.68, 4.32 0.78, 4.42 0.89 C4.51 1, 4.59 1.13, 4.67 1.25 C4.74 1.38, 4.8 1.51, 4.85 1.65 C4.9 1.78, 4.94 1.92, 4.96 2.07 C4.99 2.21, 5 2.43, 5 2.5 C5.01 2.57, 5.01 2.43, 5 2.5" stroke="#000000" stroke-width="1" fill="none"></path></g><g stroke-linecap="round" transform="translate(549.5706006336902 783.4405897706342) rotate(0 2.5009765625 2.5009765625)"><path d="M5 2.5 C5 2.65, 4.99 2.79, 4.96 2.94 C4.94 3.08, 4.9 3.22, 4.85 3.36 C4.8 3.49, 4.74 3.63, 4.67 3.75 C4.59 3.88, 4.51 4, 4.42 4.11 C4.32 4.22, 4.22 4.32, 4.11 4.42 C4 4.51, 3.88 4.59, 3.75 4.67 C3.63 4.74, 3.49 4.8, 3.36 4.85 C3.22 4.9, 3.08 4.94, 2.94 4.96 C2.79 4.99, 2.65 5, 2.5 5 C2.36 5, 2.21 4.99, 2.07 4.96 C1.92 4.94, 1.78 4.9, 1.65 4.85 C1.51 4.8, 1.38 4.74, 1.25 4.67 C1.13 4.59, 1 4.51, 0.89 4.42 C0.78 4.32, 0.68 4.22, 0.59 4.11 C0.49 4, 0.41 3.88, 0.34 3.75 C0.26 3.63, 0.2 3.49, 0.15 3.36 C0.1 3.22, 0.06 3.08, 0.04 2.94 C0.01 2.79, 0 2.65, 0 2.5 C0 2.36, 0.01 2.21, 0.04 2.07 C0.06 1.92, 0.1 1.78, 0.15 1.65 C0.2 1.51, 0.26 1.38, 0.34 1.25 C0.41 1.13, 0.49 1, 0.59 0.89 C0.68 0.78, 0.78 0.68, 0.89 0.59 C1 0.49, 1.13 0.41, 1.25 0.34 C1.38 0.26, 1.51 0.2, 1.65 0.15 C1.78 0.1, 1.92 0.06, 2.07 0.04 C2.21 0.01, 2.36 0, 2.5 0 C2.65 0, 2.79 0.01, 2.94 0.04 C3.08 0.06, 3.22 0.1, 3.36 0.15 C3.49 0.2, 3.63 0.26, 3.75 0.34 C3.88 0.41, 4 0.49, 4.11 0.59 C4.22 0.68, 4.32 0.78, 4.42 0.89 C4.51 1, 4.59 1.13, 4.67 1.25 C4.74 1.38, 4.8 1.51, 4.85 1.65 C4.9 1.78, 4.94 1.92, 4.96 2.07 C4.99 2.21, 5 2.43, 5 2.5 C5.01 2.57, 5.01 2.43, 5 2.5" stroke="none" stroke-width="0" fill="#fab005"></path><path d="M5 2.5 C5 2.65, 4.99 2.79, 4.96 2.94 C4.94 3.08, 4.9 3.22, 4.85 3.36 C4.8 3.49, 4.74 3.63, 4.67 3.75 C4.59 3.88, 4.51 4, 4.42 4.11 C4.32 4.22, 4.22 4.32, 4.11 4.42 C4 4.51, 3.88 4.59, 3.75 4.67 C3.63 4.74, 3.49 4.8, 3.36 4.85 C3.22 4.9, 3.08 4.94, 2.94 4.96 C2.79 4.99, 2.65 5, 2.5 5 C2.36 5, 2.21 4.99, 2.07 4.96 C1.92 4.94, 1.78 4.9, 1.65 4.85 C1.51 4.8, 1.38 4.74, 1.25 4.67 C1.13 4.59, 1 4.51, 0.89 4.42 C0.78 4.32, 0.68 4.22, 0.59 4.11 C0.49 4, 0.41 3.88, 0.34 3.75 C0.26 3.63, 0.2 3.49, 0.15 3.36 C0.1 3.22, 0.06 3.08, 0.04 2.94 C0.01 2.79, 0 2.65, 0 2.5 C0 2.36, 0.01 2.21, 0.04 2.07 C0.06 1.92, 0.1 1.78, 0.15 1.65 C0.2 1.51, 0.26 1.38, 0.34 1.25 C0.41 1.13, 0.49 1, 0.59 0.89 C0.68 0.78, 0.78 0.68, 0.89 0.59 C1 0.49, 1.13 0.41, 1.25 0.34 C1.38 0.26, 1.51 0.2, 1.65 0.15 C1.78 0.1, 1.92 0.06, 2.07 0.04 C2.21 0.01, 2.36 0, 2.5 0 C2.65 0, 2.79 0.01, 2.94 0.04 C3.08 0.06, 3.22 0.1, 3.36 0.15 C3.49 0.2, 3.63 0.26, 3.75 0.34 C3.88 0.41, 4 0.49, 4.11 0.59 C4.22 0.68, 4.32 0.78, 4.42 0.89 C4.51 1, 4.59 1.13, 4.67 1.25 C4.74 1.38, 4.8 1.51, 4.85 1.65 C4.9 1.78, 4.94 1.92, 4.96 2.07 C4.99 2.21, 5 2.43, 5 2.5 C5.01 2.57, 5.01 2.43, 5 2.5" stroke="#000000" stroke-width="1" fill="none"></path></g><g stroke-linecap="round" transform="translate(560.2840171000364 783.8913109244804) rotate(0 2.5009765625 2.5009765625)"><path d="M5 2.5 C5 2.65, 4.99 2.79, 4.96 2.94 C4.94 3.08, 4.9 3.22, 4.85 3.36 C4.8 3.49, 4.74 3.63, 4.67 3.75 C4.59 3.88, 4.51 4, 4.42 4.11 C4.32 4.22, 4.22 4.32, 4.11 4.42 C4 4.51, 3.88 4.59, 3.75 4.67 C3.63 4.74, 3.49 4.8, 3.36 4.85 C3.22 4.9, 3.08 4.94, 2.94 4.96 C2.79 4.99, 2.65 5, 2.5 5 C2.36 5, 2.21 4.99, 2.07 4.96 C1.92 4.94, 1.78 4.9, 1.65 4.85 C1.51 4.8, 1.38 4.74, 1.25 4.67 C1.13 4.59, 1 4.51, 0.89 4.42 C0.78 4.32, 0.68 4.22, 0.59 4.11 C0.49 4, 0.41 3.88, 0.34 3.75 C0.26 3.63, 0.2 3.49, 0.15 3.36 C0.1 3.22, 0.06 3.08, 0.04 2.94 C0.01 2.79, 0 2.65, 0 2.5 C0 2.36, 0.01 2.21, 0.04 2.07 C0.06 1.92, 0.1 1.78, 0.15 1.65 C0.2 1.51, 0.26 1.38, 0.34 1.25 C0.41 1.13, 0.49 1, 0.59 0.89 C0.68 0.78, 0.78 0.68, 0.89 0.59 C1 0.49, 1.13 0.41, 1.25 0.34 C1.38 0.26, 1.51 0.2, 1.65 0.15 C1.78 0.1, 1.92 0.06, 2.07 0.04 C2.21 0.01, 2.36 0, 2.5 0 C2.65 0, 2.79 0.01, 2.94 0.04 C3.08 0.06, 3.22 0.1, 3.36 0.15 C3.49 0.2, 3.63 0.26, 3.75 0.34 C3.88 0.41, 4 0.49, 4.11 0.59 C4.22 0.68, 4.32 0.78, 4.42 0.89 C4.51 1, 4.59 1.13, 4.67 1.25 C4.74 1.38, 4.8 1.51, 4.85 1.65 C4.9 1.78, 4.94 1.92, 4.96 2.07 C4.99 2.21, 5 2.43, 5 2.5 C5.01 2.57, 5.01 2.43, 5 2.5" stroke="none" stroke-width="0" fill="#40c057"></path><path d="M5 2.5 C5 2.65, 4.99 2.79, 4.96 2.94 C4.94 3.08, 4.9 3.22, 4.85 3.36 C4.8 3.49, 4.74 3.63, 4.67 3.75 C4.59 3.88, 4.51 4, 4.42 4.11 C4.32 4.22, 4.22 4.32, 4.11 4.42 C4 4.51, 3.88 4.59, 3.75 4.67 C3.63 4.74, 3.49 4.8, 3.36 4.85 C3.22 4.9, 3.08 4.94, 2.94 4.96 C2.79 4.99, 2.65 5, 2.5 5 C2.36 5, 2.21 4.99, 2.07 4.96 C1.92 4.94, 1.78 4.9, 1.65 4.85 C1.51 4.8, 1.38 4.74, 1.25 4.67 C1.13 4.59, 1 4.51, 0.89 4.42 C0.78 4.32, 0.68 4.22, 0.59 4.11 C0.49 4, 0.41 3.88, 0.34 3.75 C0.26 3.63, 0.2 3.49, 0.15 3.36 C0.1 3.22, 0.06 3.08, 0.04 2.94 C0.01 2.79, 0 2.65, 0 2.5 C0 2.36, 0.01 2.21, 0.04 2.07 C0.06 1.92, 0.1 1.78, 0.15 1.65 C0.2 1.51, 0.26 1.38, 0.34 1.25 C0.41 1.13, 0.49 1, 0.59 0.89 C0.68 0.78, 0.78 0.68, 0.89 0.59 C1 0.49, 1.13 0.41, 1.25 0.34 C1.38 0.26, 1.51 0.2, 1.65 0.15 C1.78 0.1, 1.92 0.06, 2.07 0.04 C2.21 0.01, 2.36 0, 2.5 0 C2.65 0, 2.79 0.01, 2.94 0.04 C3.08 0.06, 3.22 0.1, 3.36 0.15 C3.49 0.2, 3.63 0.26, 3.75 0.34 C3.88 0.41, 4 0.49, 4.11 0.59 C4.22 0.68, 4.32 0.78, 4.42 0.89 C4.51 1, 4.59 1.13, 4.67 1.25 C4.74 1.38, 4.8 1.51, 4.85 1.65 C4.9 1.78, 4.94 1.92, 4.96 2.07 C4.99 2.21, 5 2.43, 5 2.5 C5.01 2.57, 5.01 2.43, 5 2.5" stroke="#000000" stroke-width="1" fill="none"></path></g><g stroke-opacity="0.9" fill-opacity="0.9" stroke-linecap="round" transform="translate(576.3110780896636 799.9436798024963) rotate(0 21.360101269687902 21.360101269687902)"><path d="M16.92 0.49 C21.13 -0.62, 27.69 0.47, 31.65 2.61 C35.62 4.76, 39 9.08, 40.71 13.37 C42.41 17.65, 43.2 24.04, 41.86 28.33 C40.53 32.61, 36.71 36.64, 32.72 39.08 C28.73 41.53, 22.39 43.54, 17.93 43 C13.47 42.46, 8.94 39.35, 5.96 35.86 C2.98 32.36, 0.36 26.66, 0.06 22.04 C-0.23 17.42, 1.3 11.74, 4.2 8.14 C7.09 4.55, 15.18 1.7, 17.45 0.47 C19.72 -0.76, 17.77 0.47, 17.83 0.77 M21.83 0.15 C26.21 -0.06, 31.71 1.8, 35.24 4.94 C38.76 8.07, 42.2 14.37, 42.98 18.93 C43.75 23.5, 42.49 28.61, 39.88 32.32 C37.27 36.02, 31.85 39.83, 27.31 41.18 C22.77 42.53, 16.67 42.08, 12.63 40.42 C8.58 38.76, 4.98 35.17, 3.03 31.21 C1.09 27.25, 0.03 21, 0.97 16.64 C1.9 12.28, 5.18 7.89, 8.62 5.06 C12.06 2.22, 19.3 0.38, 21.62 -0.35 C23.94 -1.08, 22.42 0.31, 22.56 0.69" stroke="none" stroke-width="0" fill="#04aaf7"></path><path d="M25.16 0.21 C29.5 0.72, 34.83 4.16, 37.75 7.66 C40.66 11.16, 42.66 16.59, 42.64 21.22 C42.63 25.85, 40.61 31.91, 37.64 35.46 C34.68 39.01, 29.34 41.82, 24.88 42.54 C20.42 43.25, 14.78 41.97, 10.89 39.74 C7 37.52, 3.18 33.51, 1.54 29.21 C-0.1 24.91, -0.46 18.4, 1.04 13.93 C2.54 9.46, 6.37 4.7, 10.55 2.41 C14.73 0.12, 23.48 0.39, 26.1 0.18 C28.71 -0.03, 26.43 0.68, 26.22 1.15 M18.28 0.14 C22.69 -0.77, 29.29 0.3, 33.26 2.67 C37.23 5.05, 40.73 9.87, 42.1 14.38 C43.47 18.89, 43.29 25.53, 41.47 29.74 C39.64 33.94, 35.23 37.52, 31.15 39.6 C27.07 41.68, 21.32 43.06, 16.99 42.22 C12.66 41.38, 7.9 38.17, 5.16 34.56 C2.43 30.94, 0.59 25.07, 0.57 20.52 C0.54 15.97, 2.14 10.53, 5.03 7.25 C7.91 3.96, 15.75 2, 17.91 0.81 C20.07 -0.37, 17.79 -0.15, 17.98 0.13" stroke="#000000" stroke-width="1" fill="none"></path></g><g stroke-linecap="round"><g transform="translate(603.3892421516391 816.1680318669537) rotate(0 -3.3114080732229922 5.948935990064456)" fill-rule="evenodd"><path d="M0 0 C-0.31 -0.07, -0.57 0.63, -1.83 -0.41 C-3.09 -1.46, -5.98 -5.62, -7.57 -6.27 C-9.16 -6.93, -10.52 -5.79, -11.36 -4.35 C-12.2 -2.91, -12.63 0.53, -12.61 2.37 C-12.6 4.22, -10.47 5.65, -11.27 6.74 C-12.07 7.83, -16.44 7.74, -17.42 8.89 C-18.41 10.04, -18.04 12.9, -17.2 13.64 C-16.36 14.39, -13.8 14.04, -12.38 13.35 C-10.96 12.66, -10.16 8.72, -8.7 9.48 C-7.24 10.23, -5 16.42, -3.62 17.87 C-2.24 19.32, -0.39 20.35, -0.42 18.17 C-0.44 15.99, -4.08 7.1, -3.78 4.8 C-3.48 2.5, 0.23 4.17, 1.39 4.35 C2.54 4.53, 1.85 5.61, 3.16 5.87 C4.47 6.12, 7.96 6.74, 9.24 5.87 C10.51 5, 11.64 1.43, 10.8 0.63 C9.97 -0.16, 5.11 2.18, 4.22 1.11 C3.34 0.04, 5.78 -4.68, 5.49 -5.76 C5.19 -6.84, 3.43 -6.15, 2.47 -5.35 C1.52 -4.54, 0.17 -1.81, -0.24 -0.92 C-0.65 -0.03, -0.04 -0.15, 0 0" stroke="none" stroke-width="0" fill="#40c057" fill-rule="evenodd"></path><path d="M0 0 C-0.31 -0.07, -0.57 0.63, -1.83 -0.41 C-3.09 -1.46, -5.98 -5.62, -7.57 -6.27 C-9.16 -6.93, -10.52 -5.79, -11.36 -4.35 C-12.2 -2.91, -12.63 0.53, -12.61 2.37 C-12.6 4.22, -10.47 5.65, -11.27 6.74 C-12.07 7.83, -16.44 7.74, -17.42 8.89 C-18.41 10.04, -18.04 12.9, -17.2 13.64 C-16.36 14.39, -13.8 14.04, -12.38 13.35 C-10.96 12.66, -10.16 8.72, -8.7 9.48 C-7.24 10.23, -5 16.42, -3.62 17.87 C-2.24 19.32, -0.39 20.35, -0.42 18.17 C-0.44 15.99, -4.08 7.1, -3.78 4.8 C-3.48 2.5, 0.23 4.17, 1.39 4.35 C2.54 4.53, 1.85 5.61, 3.16 5.87 C4.47 6.12, 7.96 6.74, 9.24 5.87 C10.51 5, 11.64 1.43, 10.8 0.63 C9.97 -0.16, 5.11 2.18, 4.22 1.11 C3.34 0.04, 5.78 -4.68, 5.49 -5.76 C5.19 -6.84, 3.43 -6.15, 2.47 -5.35 C1.52 -4.54, 0.17 -1.81, -0.24 -0.92 C-0.65 -0.03, -0.04 -0.15, 0 0 M0 0 C-0.31 -0.07, -0.57 0.63, -1.83 -0.41 C-3.09 -1.46, -5.98 -5.62, -7.57 -6.27 C-9.16 -6.93, -10.52 -5.79, -11.36 -4.35 C-12.2 -2.91, -12.63 0.53, -12.61 2.37 C-12.6 4.22, -10.47 5.65, -11.27 6.74 C-12.07 7.83, -16.44 7.74, -17.42 8.89 C-18.41 10.04, -18.04 12.9, -17.2 13.64 C-16.36 14.39, -13.8 14.04, -12.38 13.35 C-10.96 12.66, -10.16 8.72, -8.7 9.48 C-7.24 10.23, -5 16.42, -3.62 17.87 C-2.24 19.32, -0.39 20.35, -0.42 18.17 C-0.44 15.99, -4.08 7.1, -3.78 4.8 C-3.48 2.5, 0.23 4.17, 1.39 4.35 C2.54 4.53, 1.85 5.61, 3.16 5.87 C4.47 6.12, 7.96 6.74, 9.24 5.87 C10.51 5, 11.64 1.43, 10.8 0.63 C9.97 -0.16, 5.11 2.18, 4.22 1.11 C3.34 0.04, 5.78 -4.68, 5.49 -5.76 C5.19 -6.84, 3.43 -6.15, 2.47 -5.35 C1.52 -4.54, 0.17 -1.81, -0.24 -0.92 C-0.65 -0.03, -0.04 -0.15, 0 0" stroke="#087f5b" stroke-width="1" fill="none"></path></g></g><mask></mask><g stroke-linecap="round"><g stroke-opacity="0.9" fill-opacity="0.9" transform="translate(577.3701405636912 820.9065533656772) rotate(0 21.047557886136133 0)"><path d="M-0.17 0.18 C6.76 0.19, 34.92 0.12, 41.98 0.08 M0.74 -0.2 C7.56 -0.09, 34.63 0.71, 41.49 0.82" stroke="#000000" stroke-width="1" fill="none"></path></g></g><mask></mask><g stroke-linecap="round"><g stroke-opacity="0.9" fill-opacity="0.9" transform="translate(582.4654695934655 805.4720244387113) rotate(0 14.659303301924297 2.593116626464507)"><path d="M0 0 C0.13 0.38, 0.09 1.58, 0.77 2.28 C1.46 2.97, 2.81 3.68, 4.1 4.19 C5.4 4.7, 6.64 5.13, 8.54 5.34 C10.43 5.55, 12.97 5.55, 15.48 5.45 C17.99 5.34, 21.44 5.28, 23.58 4.71 C25.72 4.14, 27.36 2.86, 28.32 2.03 C29.27 1.2, 29.15 0.12, 29.32 -0.26 M0 0 C0.13 0.38, 0.09 1.58, 0.77 2.28 C1.46 2.97, 2.81 3.68, 4.1 4.19 C5.4 4.7, 6.64 5.13, 8.54 5.34 C10.43 5.55, 12.97 5.55, 15.48 5.45 C17.99 5.34, 21.44 5.28, 23.58 4.71 C25.72 4.14, 27.36 2.86, 28.32 2.03 C29.27 1.2, 29.15 0.12, 29.32 -0.26" stroke="#000000" stroke-width="1" fill="none"></path></g></g><mask></mask><g stroke-opacity="0.9" fill-opacity="0.9" stroke-linecap="round" transform="translate(590.539385517385 798.5611501729036) rotate(0 7.764217176558077 22.41115194065469)"><path d="M7.24 0.17 C8.86 -0.37, 11.31 1.61, 12.7 4.62 C14.09 7.64, 15.31 13.57, 15.59 18.26 C15.87 22.95, 15.22 28.7, 14.39 32.77 C13.56 36.85, 12.05 40.94, 10.6 42.72 C9.15 44.49, 7.29 44.82, 5.69 43.43 C4.09 42.04, 2 38.31, 0.99 34.36 C-0.03 30.4, -0.6 24.52, -0.38 19.72 C-0.16 14.91, 0.98 8.83, 2.31 5.53 C3.63 2.22, 6.62 0.66, 7.58 -0.12 C8.53 -0.91, 8.08 0.38, 8.05 0.81 M6.44 -0.4 C7.95 -1.42, 10.4 0.64, 11.96 3.27 C13.52 5.9, 15.21 10.83, 15.81 15.39 C16.4 19.94, 16.35 26.1, 15.54 30.59 C14.73 35.08, 12.61 39.93, 10.96 42.33 C9.32 44.73, 7.3 46.07, 5.67 44.99 C4.03 43.92, 2.05 39.71, 1.15 35.89 C0.26 32.06, 0.28 26.78, 0.29 22.03 C0.3 17.29, 0.25 10.99, 1.2 7.41 C2.15 3.82, 5.13 1.63, 5.99 0.5 C6.84 -0.62, 6.22 0.27, 6.36 0.65" stroke="#000000" stroke-width="1" fill="none"></path></g><g stroke-linecap="round"><g stroke-opacity="0.9" fill-opacity="0.9" transform="translate(583.9814211030914 837.2091164971521) rotate(0 14.659303301924297 -2.6770512214206974)"><path d="M0 0 C0.68 -0.72, 2.68 -3.4, 4.1 -4.32 C5.53 -5.24, 6.64 -5.3, 8.54 -5.52 C10.43 -5.73, 12.97 -5.73, 15.48 -5.63 C17.99 -5.52, 21.44 -5.45, 23.58 -4.86 C25.72 -4.28, 27.36 -2.95, 28.32 -2.1 C29.27 -1.24, 29.15 -0.12, 29.32 0.27 M0 0 C0.68 -0.72, 2.68 -3.4, 4.1 -4.32 C5.53 -5.24, 6.64 -5.3, 8.54 -5.52 C10.43 -5.73, 12.97 -5.73, 15.48 -5.63 C17.99 -5.52, 21.44 -5.45, 23.58 -4.86 C25.72 -4.28, 27.36 -2.95, 28.32 -2.1 C29.27 -1.24, 29.15 -0.12, 29.32 0.27" stroke="#000000" stroke-width="1" fill="none"></path></g></g><mask></mask><g stroke-linecap="round" transform="translate(533.7925243901218 919.6206833026567) rotate(0 63.9419178660695 38.26851694988886)"><path d="M0 0 C35.61 -0.48, 73.92 -1.71, 127.88 0 M0 0 C43.78 0.43, 87.36 1.24, 127.88 0 M127.88 0 C125.76 20.49, 126.51 36.47, 127.88 76.54 M127.88 0 C128.39 18.71, 128.23 38.47, 127.88 76.54 M127.88 76.54 C82.12 76.63, 39.79 78.06, 0 76.54 M127.88 76.54 C87.04 76.82, 46.81 77.33, 0 76.54 M0 76.54 C1.01 57.1, 0.04 39.95, 0 0 M0 76.54 C0.35 51.45, 0.48 24.46, 0 0" stroke="#000000" stroke-width="1" fill="none"></path></g><g stroke-linecap="round"><g transform="translate(532.7169266392266 930.337217694901) rotate(0 64.42096614922218 0)"><path d="M0.37 0.35 C21.61 0.54, 106.88 0.69, 128.48 0.54 M-0.89 -0.52 C20.07 -0.62, 105.55 -1.46, 127.34 -1.29" stroke="#000000" stroke-width="1" fill="none"></path></g></g><mask></mask><g stroke-linecap="round" transform="translate(538.2805598590767 923.8922531026656) rotate(0 2.5009765625 2.5009765625)"><path d="M5 2.5 C5 2.65, 4.99 2.79, 4.96 2.94 C4.94 3.08, 4.9 3.22, 4.85 3.36 C4.8 3.49, 4.74 3.63, 4.67 3.75 C4.59 3.88, 4.51 4, 4.42 4.11 C4.32 4.22, 4.22 4.32, 4.11 4.42 C4 4.51, 3.88 4.59, 3.75 4.67 C3.63 4.74, 3.49 4.8, 3.36 4.85 C3.22 4.9, 3.08 4.94, 2.94 4.96 C2.79 4.99, 2.65 5, 2.5 5 C2.36 5, 2.21 4.99, 2.07 4.96 C1.92 4.94, 1.78 4.9, 1.65 4.85 C1.51 4.8, 1.38 4.74, 1.25 4.67 C1.13 4.59, 1 4.51, 0.89 4.42 C0.78 4.32, 0.68 4.22, 0.59 4.11 C0.49 4, 0.41 3.88, 0.34 3.75 C0.26 3.63, 0.2 3.49, 0.15 3.36 C0.1 3.22, 0.06 3.08, 0.04 2.94 C0.01 2.79, 0 2.65, 0 2.5 C0 2.36, 0.01 2.21, 0.04 2.07 C0.06 1.92, 0.1 1.78, 0.15 1.65 C0.2 1.51, 0.26 1.38, 0.34 1.25 C0.41 1.13, 0.49 1, 0.59 0.89 C0.68 0.78, 0.78 0.68, 0.89 0.59 C1 0.49, 1.13 0.41, 1.25 0.34 C1.38 0.26, 1.51 0.2, 1.65 0.15 C1.78 0.1, 1.92 0.06, 2.07 0.04 C2.21 0.01, 2.36 0, 2.5 0 C2.65 0, 2.79 0.01, 2.94 0.04 C3.08 0.06, 3.22 0.1, 3.36 0.15 C3.49 0.2, 3.63 0.26, 3.75 0.34 C3.88 0.41, 4 0.49, 4.11 0.59 C4.22 0.68, 4.32 0.78, 4.42 0.89 C4.51 1, 4.59 1.13, 4.67 1.25 C4.74 1.38, 4.8 1.51, 4.85 1.65 C4.9 1.78, 4.94 1.92, 4.96 2.07 C4.99 2.21, 5 2.43, 5 2.5 C5.01 2.57, 5.01 2.43, 5 2.5" stroke="none" stroke-width="0" fill="#fa5252"></path><path d="M5 2.5 C5 2.65, 4.99 2.79, 4.96 2.94 C4.94 3.08, 4.9 3.22, 4.85 3.36 C4.8 3.49, 4.74 3.63, 4.67 3.75 C4.59 3.88, 4.51 4, 4.42 4.11 C4.32 4.22, 4.22 4.32, 4.11 4.42 C4 4.51, 3.88 4.59, 3.75 4.67 C3.63 4.74, 3.49 4.8, 3.36 4.85 C3.22 4.9, 3.08 4.94, 2.94 4.96 C2.79 4.99, 2.65 5, 2.5 5 C2.36 5, 2.21 4.99, 2.07 4.96 C1.92 4.94, 1.78 4.9, 1.65 4.85 C1.51 4.8, 1.38 4.74, 1.25 4.67 C1.13 4.59, 1 4.51, 0.89 4.42 C0.78 4.32, 0.68 4.22, 0.59 4.11 C0.49 4, 0.41 3.88, 0.34 3.75 C0.26 3.63, 0.2 3.49, 0.15 3.36 C0.1 3.22, 0.06 3.08, 0.04 2.94 C0.01 2.79, 0 2.65, 0 2.5 C0 2.36, 0.01 2.21, 0.04 2.07 C0.06 1.92, 0.1 1.78, 0.15 1.65 C0.2 1.51, 0.26 1.38, 0.34 1.25 C0.41 1.13, 0.49 1, 0.59 0.89 C0.68 0.78, 0.78 0.68, 0.89 0.59 C1 0.49, 1.13 0.41, 1.25 0.34 C1.38 0.26, 1.51 0.2, 1.65 0.15 C1.78 0.1, 1.92 0.06, 2.07 0.04 C2.21 0.01, 2.36 0, 2.5 0 C2.65 0, 2.79 0.01, 2.94 0.04 C3.08 0.06, 3.22 0.1, 3.36 0.15 C3.49 0.2, 3.63 0.26, 3.75 0.34 C3.88 0.41, 4 0.49, 4.11 0.59 C4.22 0.68, 4.32 0.78, 4.42 0.89 C4.51 1, 4.59 1.13, 4.67 1.25 C4.74 1.38, 4.8 1.51, 4.85 1.65 C4.9 1.78, 4.94 1.92, 4.96 2.07 C4.99 2.21, 5 2.43, 5 2.5 C5.01 2.57, 5.01 2.43, 5 2.5" stroke="#000000" stroke-width="1" fill="none"></path></g><g stroke-linecap="round" transform="translate(548.5432551715767 923.8922531026656) rotate(0 2.5009765625 2.5009765625)"><path d="M5 2.5 C5 2.65, 4.99 2.79, 4.96 2.94 C4.94 3.08, 4.9 3.22, 4.85 3.36 C4.8 3.49, 4.74 3.63, 4.67 3.75 C4.59 3.88, 4.51 4, 4.42 4.11 C4.32 4.22, 4.22 4.32, 4.11 4.42 C4 4.51, 3.88 4.59, 3.75 4.67 C3.63 4.74, 3.49 4.8, 3.36 4.85 C3.22 4.9, 3.08 4.94, 2.94 4.96 C2.79 4.99, 2.65 5, 2.5 5 C2.36 5, 2.21 4.99, 2.07 4.96 C1.92 4.94, 1.78 4.9, 1.65 4.85 C1.51 4.8, 1.38 4.74, 1.25 4.67 C1.13 4.59, 1 4.51, 0.89 4.42 C0.78 4.32, 0.68 4.22, 0.59 4.11 C0.49 4, 0.41 3.88, 0.34 3.75 C0.26 3.63, 0.2 3.49, 0.15 3.36 C0.1 3.22, 0.06 3.08, 0.04 2.94 C0.01 2.79, 0 2.65, 0 2.5 C0 2.36, 0.01 2.21, 0.04 2.07 C0.06 1.92, 0.1 1.78, 0.15 1.65 C0.2 1.51, 0.26 1.38, 0.34 1.25 C0.41 1.13, 0.49 1, 0.59 0.89 C0.68 0.78, 0.78 0.68, 0.89 0.59 C1 0.49, 1.13 0.41, 1.25 0.34 C1.38 0.26, 1.51 0.2, 1.65 0.15 C1.78 0.1, 1.92 0.06, 2.07 0.04 C2.21 0.01, 2.36 0, 2.5 0 C2.65 0, 2.79 0.01, 2.94 0.04 C3.08 0.06, 3.22 0.1, 3.36 0.15 C3.49 0.2, 3.63 0.26, 3.75 0.34 C3.88 0.41, 4 0.49, 4.11 0.59 C4.22 0.68, 4.32 0.78, 4.42 0.89 C4.51 1, 4.59 1.13, 4.67 1.25 C4.74 1.38, 4.8 1.51, 4.85 1.65 C4.9 1.78, 4.94 1.92, 4.96 2.07 C4.99 2.21, 5 2.43, 5 2.5 C5.01 2.57, 5.01 2.43, 5 2.5" stroke="none" stroke-width="0" fill="#fab005"></path><path d="M5 2.5 C5 2.65, 4.99 2.79, 4.96 2.94 C4.94 3.08, 4.9 3.22, 4.85 3.36 C4.8 3.49, 4.74 3.63, 4.67 3.75 C4.59 3.88, 4.51 4, 4.42 4.11 C4.32 4.22, 4.22 4.32, 4.11 4.42 C4 4.51, 3.88 4.59, 3.75 4.67 C3.63 4.74, 3.49 4.8, 3.36 4.85 C3.22 4.9, 3.08 4.94, 2.94 4.96 C2.79 4.99, 2.65 5, 2.5 5 C2.36 5, 2.21 4.99, 2.07 4.96 C1.92 4.94, 1.78 4.9, 1.65 4.85 C1.51 4.8, 1.38 4.74, 1.25 4.67 C1.13 4.59, 1 4.51, 0.89 4.42 C0.78 4.32, 0.68 4.22, 0.59 4.11 C0.49 4, 0.41 3.88, 0.34 3.75 C0.26 3.63, 0.2 3.49, 0.15 3.36 C0.1 3.22, 0.06 3.08, 0.04 2.94 C0.01 2.79, 0 2.65, 0 2.5 C0 2.36, 0.01 2.21, 0.04 2.07 C0.06 1.92, 0.1 1.78, 0.15 1.65 C0.2 1.51, 0.26 1.38, 0.34 1.25 C0.41 1.13, 0.49 1, 0.59 0.89 C0.68 0.78, 0.78 0.68, 0.89 0.59 C1 0.49, 1.13 0.41, 1.25 0.34 C1.38 0.26, 1.51 0.2, 1.65 0.15 C1.78 0.1, 1.92 0.06, 2.07 0.04 C2.21 0.01, 2.36 0, 2.5 0 C2.65 0, 2.79 0.01, 2.94 0.04 C3.08 0.06, 3.22 0.1, 3.36 0.15 C3.49 0.2, 3.63 0.26, 3.75 0.34 C3.88 0.41, 4 0.49, 4.11 0.59 C4.22 0.68, 4.32 0.78, 4.42 0.89 C4.51 1, 4.59 1.13, 4.67 1.25 C4.74 1.38, 4.8 1.51, 4.85 1.65 C4.9 1.78, 4.94 1.92, 4.96 2.07 C4.99 2.21, 5 2.43, 5 2.5 C5.01 2.57, 5.01 2.43, 5 2.5" stroke="#000000" stroke-width="1" fill="none"></path></g><g stroke-linecap="round" transform="translate(559.2566716379229 924.3429742565118) rotate(0 2.5009765625 2.5009765625)"><path d="M5 2.5 C5 2.65, 4.99 2.79, 4.96 2.94 C4.94 3.08, 4.9 3.22, 4.85 3.36 C4.8 3.49, 4.74 3.63, 4.67 3.75 C4.59 3.88, 4.51 4, 4.42 4.11 C4.32 4.22, 4.22 4.32, 4.11 4.42 C4 4.51, 3.88 4.59, 3.75 4.67 C3.63 4.74, 3.49 4.8, 3.36 4.85 C3.22 4.9, 3.08 4.94, 2.94 4.96 C2.79 4.99, 2.65 5, 2.5 5 C2.36 5, 2.21 4.99, 2.07 4.96 C1.92 4.94, 1.78 4.9, 1.65 4.85 C1.51 4.8, 1.38 4.74, 1.25 4.67 C1.13 4.59, 1 4.51, 0.89 4.42 C0.78 4.32, 0.68 4.22, 0.59 4.11 C0.49 4, 0.41 3.88, 0.34 3.75 C0.26 3.63, 0.2 3.49, 0.15 3.36 C0.1 3.22, 0.06 3.08, 0.04 2.94 C0.01 2.79, 0 2.65, 0 2.5 C0 2.36, 0.01 2.21, 0.04 2.07 C0.06 1.92, 0.1 1.78, 0.15 1.65 C0.2 1.51, 0.26 1.38, 0.34 1.25 C0.41 1.13, 0.49 1, 0.59 0.89 C0.68 0.78, 0.78 0.68, 0.89 0.59 C1 0.49, 1.13 0.41, 1.25 0.34 C1.38 0.26, 1.51 0.2, 1.65 0.15 C1.78 0.1, 1.92 0.06, 2.07 0.04 C2.21 0.01, 2.36 0, 2.5 0 C2.65 0, 2.79 0.01, 2.94 0.04 C3.08 0.06, 3.22 0.1, 3.36 0.15 C3.49 0.2, 3.63 0.26, 3.75 0.34 C3.88 0.41, 4 0.49, 4.11 0.59 C4.22 0.68, 4.32 0.78, 4.42 0.89 C4.51 1, 4.59 1.13, 4.67 1.25 C4.74 1.38, 4.8 1.51, 4.85 1.65 C4.9 1.78, 4.94 1.92, 4.96 2.07 C4.99 2.21, 5 2.43, 5 2.5 C5.01 2.57, 5.01 2.43, 5 2.5" stroke="none" stroke-width="0" fill="#40c057"></path><path d="M5 2.5 C5 2.65, 4.99 2.79, 4.96 2.94 C4.94 3.08, 4.9 3.22, 4.85 3.36 C4.8 3.49, 4.74 3.63, 4.67 3.75 C4.59 3.88, 4.51 4, 4.42 4.11 C4.32 4.22, 4.22 4.32, 4.11 4.42 C4 4.51, 3.88 4.59, 3.75 4.67 C3.63 4.74, 3.49 4.8, 3.36 4.85 C3.22 4.9, 3.08 4.94, 2.94 4.96 C2.79 4.99, 2.65 5, 2.5 5 C2.36 5, 2.21 4.99, 2.07 4.96 C1.92 4.94, 1.78 4.9, 1.65 4.85 C1.51 4.8, 1.38 4.74, 1.25 4.67 C1.13 4.59, 1 4.51, 0.89 4.42 C0.78 4.32, 0.68 4.22, 0.59 4.11 C0.49 4, 0.41 3.88, 0.34 3.75 C0.26 3.63, 0.2 3.49, 0.15 3.36 C0.1 3.22, 0.06 3.08, 0.04 2.94 C0.01 2.79, 0 2.65, 0 2.5 C0 2.36, 0.01 2.21, 0.04 2.07 C0.06 1.92, 0.1 1.78, 0.15 1.65 C0.2 1.51, 0.26 1.38, 0.34 1.25 C0.41 1.13, 0.49 1, 0.59 0.89 C0.68 0.78, 0.78 0.68, 0.89 0.59 C1 0.49, 1.13 0.41, 1.25 0.34 C1.38 0.26, 1.51 0.2, 1.65 0.15 C1.78 0.1, 1.92 0.06, 2.07 0.04 C2.21 0.01, 2.36 0, 2.5 0 C2.65 0, 2.79 0.01, 2.94 0.04 C3.08 0.06, 3.22 0.1, 3.36 0.15 C3.49 0.2, 3.63 0.26, 3.75 0.34 C3.88 0.41, 4 0.49, 4.11 0.59 C4.22 0.68, 4.32 0.78, 4.42 0.89 C4.51 1, 4.59 1.13, 4.67 1.25 C4.74 1.38, 4.8 1.51, 4.85 1.65 C4.9 1.78, 4.94 1.92, 4.96 2.07 C4.99 2.21, 5 2.43, 5 2.5 C5.01 2.57, 5.01 2.43, 5 2.5" stroke="#000000" stroke-width="1" fill="none"></path></g><g stroke-opacity="0.9" fill-opacity="0.9" stroke-linecap="round" transform="translate(575.2837326275501 940.3953431345276) rotate(0 21.360101269687902 21.360101269687902)"><path d="M22.49 -0.18 C26.89 -0.29, 32.73 2.25, 36.07 5.38 C39.42 8.51, 42.03 14.05, 42.57 18.61 C43.11 23.17, 41.89 28.84, 39.31 32.75 C36.73 36.67, 31.46 40.7, 27.11 42.12 C22.76 43.54, 17.42 43.21, 13.24 41.28 C9.05 39.36, 4.17 34.8, 2 30.59 C-0.17 26.38, -0.8 20.36, 0.22 16.03 C1.24 11.7, 4.25 7.23, 8.1 4.63 C11.95 2.02, 20.66 1.05, 23.31 0.42 C25.96 -0.21, 23.95 0.6, 23.99 0.84 M19.12 -0.07 C23.22 -0.95, 28.49 0.66, 32.3 3.19 C36.11 5.72, 40.63 10.72, 41.97 15.11 C43.31 19.49, 42.16 25.35, 40.34 29.48 C38.51 33.61, 35.03 37.73, 31.01 39.87 C27 42.01, 20.77 43.39, 16.24 42.32 C11.72 41.25, 6.49 37.03, 3.85 33.45 C1.21 29.87, 0.1 25.33, 0.39 20.85 C0.68 16.38, 2.61 10.04, 5.61 6.59 C8.62 3.14, 16.1 1.11, 18.4 0.17 C20.7 -0.77, 19.4 0.61, 19.43 0.96" stroke="none" stroke-width="0" fill="#04aaf7"></path><path d="M17.9 0.68 C22.15 -0.26, 28.46 0.7, 32.38 3.03 C36.3 5.35, 39.98 10.17, 41.44 14.61 C42.9 19.05, 42.87 25.37, 41.14 29.68 C39.4 33.99, 35.09 38.34, 31.01 40.47 C26.93 42.61, 21.03 43.49, 16.65 42.48 C12.27 41.47, 7.6 38.04, 4.75 34.42 C1.9 30.8, -0.54 25.22, -0.42 20.74 C-0.31 16.26, 2.2 10.92, 5.45 7.54 C8.71 4.17, 16.73 1.73, 19.12 0.49 C21.5 -0.74, 19.7 -0.08, 19.76 0.15 M26.01 0.64 C30.28 1.31, 34.72 4.36, 37.39 7.97 C40.07 11.58, 42.15 17.68, 42.09 22.27 C42.02 26.87, 39.95 32.12, 37.01 35.55 C34.08 38.98, 28.93 42.32, 24.47 42.86 C20.01 43.4, 14.17 41.24, 10.26 38.82 C6.36 36.4, 2.42 32.56, 1.05 28.34 C-0.32 24.13, 0.44 17.94, 2.04 13.53 C3.63 9.12, 6.57 3.96, 10.64 1.9 C14.71 -0.16, 23.9 1.34, 26.45 1.18 C29.01 1.02, 26.17 0.81, 25.96 0.95" stroke="#000000" stroke-width="1" fill="none"></path></g><g stroke-linecap="round"><g transform="translate(602.3618966895256 956.619695198985) rotate(0 -3.3114080732229922 5.948935990064456)" fill-rule="evenodd"><path d="M0 0 C-0.31 -0.07, -0.57 0.63, -1.83 -0.41 C-3.09 -1.46, -5.98 -5.62, -7.57 -6.27 C-9.16 -6.93, -10.52 -5.79, -11.36 -4.35 C-12.2 -2.91, -12.63 0.53, -12.61 2.37 C-12.6 4.22, -10.47 5.65, -11.27 6.74 C-12.07 7.83, -16.44 7.74, -17.42 8.89 C-18.41 10.04, -18.04 12.9, -17.2 13.64 C-16.36 14.39, -13.8 14.04, -12.38 13.35 C-10.96 12.66, -10.16 8.72, -8.7 9.48 C-7.24 10.23, -5 16.42, -3.62 17.87 C-2.24 19.32, -0.39 20.35, -0.42 18.17 C-0.44 15.99, -4.08 7.1, -3.78 4.8 C-3.48 2.5, 0.23 4.17, 1.39 4.35 C2.54 4.53, 1.85 5.61, 3.16 5.87 C4.47 6.12, 7.96 6.74, 9.24 5.87 C10.51 5, 11.64 1.43, 10.8 0.63 C9.97 -0.16, 5.11 2.18, 4.22 1.11 C3.34 0.04, 5.78 -4.68, 5.49 -5.76 C5.19 -6.84, 3.43 -6.15, 2.47 -5.35 C1.52 -4.54, 0.17 -1.81, -0.24 -0.92 C-0.65 -0.03, -0.04 -0.15, 0 0" stroke="none" stroke-width="0" fill="#40c057" fill-rule="evenodd"></path><path d="M0 0 C-0.31 -0.07, -0.57 0.63, -1.83 -0.41 C-3.09 -1.46, -5.98 -5.62, -7.57 -6.27 C-9.16 -6.93, -10.52 -5.79, -11.36 -4.35 C-12.2 -2.91, -12.63 0.53, -12.61 2.37 C-12.6 4.22, -10.47 5.65, -11.27 6.74 C-12.07 7.83, -16.44 7.74, -17.42 8.89 C-18.41 10.04, -18.04 12.9, -17.2 13.64 C-16.36 14.39, -13.8 14.04, -12.38 13.35 C-10.96 12.66, -10.16 8.72, -8.7 9.48 C-7.24 10.23, -5 16.42, -3.62 17.87 C-2.24 19.32, -0.39 20.35, -0.42 18.17 C-0.44 15.99, -4.08 7.1, -3.78 4.8 C-3.48 2.5, 0.23 4.17, 1.39 4.35 C2.54 4.53, 1.85 5.61, 3.16 5.87 C4.47 6.12, 7.96 6.74, 9.24 5.87 C10.51 5, 11.64 1.43, 10.8 0.63 C9.97 -0.16, 5.11 2.18, 4.22 1.11 C3.34 0.04, 5.78 -4.68, 5.49 -5.76 C5.19 -6.84, 3.43 -6.15, 2.47 -5.35 C1.52 -4.54, 0.17 -1.81, -0.24 -0.92 C-0.65 -0.03, -0.04 -0.15, 0 0 M0 0 C-0.31 -0.07, -0.57 0.63, -1.83 -0.41 C-3.09 -1.46, -5.98 -5.62, -7.57 -6.27 C-9.16 -6.93, -10.52 -5.79, -11.36 -4.35 C-12.2 -2.91, -12.63 0.53, -12.61 2.37 C-12.6 4.22, -10.47 5.65, -11.27 6.74 C-12.07 7.83, -16.44 7.74, -17.42 8.89 C-18.41 10.04, -18.04 12.9, -17.2 13.64 C-16.36 14.39, -13.8 14.04, -12.38 13.35 C-10.96 12.66, -10.16 8.72, -8.7 9.48 C-7.24 10.23, -5 16.42, -3.62 17.87 C-2.24 19.32, -0.39 20.35, -0.42 18.17 C-0.44 15.99, -4.08 7.1, -3.78 4.8 C-3.48 2.5, 0.23 4.17, 1.39 4.35 C2.54 4.53, 1.85 5.61, 3.16 5.87 C4.47 6.12, 7.96 6.74, 9.24 5.87 C10.51 5, 11.64 1.43, 10.8 0.63 C9.97 -0.16, 5.11 2.18, 4.22 1.11 C3.34 0.04, 5.78 -4.68, 5.49 -5.76 C5.19 -6.84, 3.43 -6.15, 2.47 -5.35 C1.52 -4.54, 0.17 -1.81, -0.24 -0.92 C-0.65 -0.03, -0.04 -0.15, 0 0" stroke="#087f5b" stroke-width="1" fill="none"></path></g></g><mask></mask><g stroke-linecap="round"><g stroke-opacity="0.9" fill-opacity="0.9" transform="translate(576.3427951015776 961.3582166977085) rotate(0 21.047557886136133 0)"><path d="M0.11 -0.5 C7.27 -0.52, 35.64 -0.34, 42.6 -0.3 M-0.49 0.43 C6.66 0.5, 35.45 0.28, 42.43 0.25" stroke="#000000" stroke-width="1" fill="none"></path></g></g><mask></mask><g stroke-linecap="round"><g stroke-opacity="0.9" fill-opacity="0.9" transform="translate(581.438124131352 945.9236877707426) rotate(0 14.659303301924297 2.593116626464507)"><path d="M0 0 C0.13 0.38, 0.09 1.58, 0.77 2.28 C1.46 2.97, 2.81 3.68, 4.1 4.19 C5.4 4.7, 6.64 5.13, 8.54 5.34 C10.43 5.55, 12.97 5.55, 15.48 5.45 C17.99 5.34, 21.44 5.28, 23.58 4.71 C25.72 4.14, 27.36 2.86, 28.32 2.03 C29.27 1.2, 29.15 0.12, 29.32 -0.26 M0 0 C0.13 0.38, 0.09 1.58, 0.77 2.28 C1.46 2.97, 2.81 3.68, 4.1 4.19 C5.4 4.7, 6.64 5.13, 8.54 5.34 C10.43 5.55, 12.97 5.55, 15.48 5.45 C17.99 5.34, 21.44 5.28, 23.58 4.71 C25.72 4.14, 27.36 2.86, 28.32 2.03 C29.27 1.2, 29.15 0.12, 29.32 -0.26" stroke="#000000" stroke-width="1" fill="none"></path></g></g><mask></mask><g stroke-opacity="0.9" fill-opacity="0.9" stroke-linecap="round" transform="translate(589.5120400552714 939.0128135049349) rotate(0 7.764217176558077 22.41115194065469)"><path d="M6.89 0.31 C8.42 -0.27, 10.65 1.83, 12.09 4.63 C13.53 7.42, 15.15 12.43, 15.52 17.08 C15.88 21.73, 15.05 28.14, 14.27 32.53 C13.49 36.92, 12.28 41.47, 10.84 43.43 C9.4 45.38, 7.22 45.76, 5.62 44.26 C4.03 42.76, 2.18 38.55, 1.27 34.42 C0.37 30.29, -0.05 24.26, 0.21 19.48 C0.47 14.71, 1.67 9, 2.84 5.78 C4 2.57, 6.34 1.18, 7.18 0.21 C8.01 -0.77, 7.8 -0.32, 7.84 -0.05 M8.47 0.44 C10.13 0.43, 12.22 2.45, 13.39 5.83 C14.56 9.2, 15.26 15.79, 15.47 20.71 C15.68 25.62, 15.7 31.54, 14.65 35.32 C13.6 39.1, 10.75 42.05, 9.18 43.41 C7.61 44.76, 6.59 45.38, 5.24 43.48 C3.89 41.58, 1.91 36.56, 1.07 32 C0.23 27.45, -0.16 20.79, 0.2 16.13 C0.56 11.48, 1.83 6.8, 3.23 4.07 C4.63 1.34, 7.71 0.38, 8.59 -0.23 C9.48 -0.84, 8.62 -0.04, 8.52 0.4" stroke="#000000" stroke-width="1" fill="none"></path></g><g stroke-linecap="round"><g stroke-opacity="0.9" fill-opacity="0.9" transform="translate(582.9540756409779 977.6607798291834) rotate(0 14.659303301924297 -2.6770512214206974)"><path d="M0 0 C0.68 -0.72, 2.68 -3.4, 4.1 -4.32 C5.53 -5.24, 6.64 -5.3, 8.54 -5.52 C10.43 -5.73, 12.97 -5.73, 15.48 -5.63 C17.99 -5.52, 21.44 -5.45, 23.58 -4.86 C25.72 -4.28, 27.36 -2.95, 28.32 -2.1 C29.27 -1.24, 29.15 -0.12, 29.32 0.27 M0 0 C0.68 -0.72, 2.68 -3.4, 4.1 -4.32 C5.53 -5.24, 6.64 -5.3, 8.54 -5.52 C10.43 -5.73, 12.97 -5.73, 15.48 -5.63 C17.99 -5.52, 21.44 -5.45, 23.58 -4.86 C25.72 -4.28, 27.36 -2.95, 28.32 -2.1 C29.27 -1.24, 29.15 -0.12, 29.32 0.27" stroke="#000000" stroke-width="1" fill="none"></path></g></g><mask></mask><g transform="translate(621.0157045715268 660.747413645362) rotate(0 163.58395385742188 22.5)"><text x="0" y="0" font-family="Virgil, Segoe UI Emoji" font-size="36px" fill="#f08c00" text-anchor="start" style="white-space: pre;" direction="ltr" dominant-baseline="text-before-edge">with the ZK Proof</text></g></svg>